<?xml version="1.0" encoding="utf-8" standalone="no"?>
<!DOCTYPE svg PUBLIC "-//W3C//DTD SVG 1.1//EN"
  "http://www.w3.org/Graphics/SVG/1.1/DTD/svg11.dtd">
<!-- Created with matplotlib (https://matplotlib.org/) -->
<svg height="344.16pt" version="1.1" viewBox="0 0 460.8 344.16" width="460.8pt" xmlns="http://www.w3.org/2000/svg" xmlns:xlink="http://www.w3.org/1999/xlink">
 <defs>
  <style type="text/css">
*{stroke-linecap:butt;stroke-linejoin:round;}
  </style>
 </defs>
 <g id="figure_1">
  <g id="patch_1">
   <path d="M 0 344.16 
L 460.8 344.16 
L 460.8 0 
L 0 0 
z
" style="fill:#ffffff;"/>
  </g>
  <g id="axes_1">
   <g id="patch_2">
    <path d="M 104.389784 306.3024 
L 367.930216 306.3024 
L 367.930216 41.2992 
L 104.389784 41.2992 
z
" style="fill:#eaeaf2;"/>
   </g>
   <g id="matplotlib.axis_1">
    <g id="xtick_1">
     <g id="line2d_1">
      <path clip-path="url(#p1ec7dba4d0)" d="M 116.368895 306.3024 
L 116.368895 41.2992 
" style="fill:none;stroke:#ffffff;stroke-linecap:round;"/>
     </g>
     <g id="text_1">
      <!-- 2016 -->
      <defs>
       <path d="M 2.25 -0.484375 
L 1.65625 0 
L 1.65625 2.25 
L 18.015625 19.578125 
Q 28.125 30.28125 31.09375 36.140625 
Q 34.078125 42 34.078125 47.078125 
Q 34.078125 53.03125 30.46875 56.984375 
Q 26.859375 60.9375 20.703125 60.9375 
Q 16.75 60.9375 13.8125 59.71875 
Q 10.890625 58.5 9.890625 56.984375 
Q 8.890625 55.46875 6.984375 48.484375 
L 6.546875 48.09375 
L 4.546875 48.09375 
L 4.046875 48.53125 
Q 5.171875 55.125 5.609375 61.578125 
Q 10.203125 66.0625 14.1875 67.3125 
Q 18.171875 68.5625 22.515625 68.5625 
Q 27.6875 68.5625 32.421875 66.609375 
Q 37.15625 64.65625 40.03125 60.28125 
Q 42.921875 55.90625 42.921875 50.140625 
Q 42.921875 45.84375 41.234375 41.515625 
Q 39.546875 37.203125 36.296875 33.171875 
Q 33.0625 29.15625 27.4375 23.53125 
L 12.203125 8.015625 
L 31.5 8.015625 
Q 40.375 8.015625 46.296875 8.640625 
L 46.625 8.25 
Q 46.34375 6.59375 46.34375 3.90625 
Q 46.34375 1.46875 46.625 0.046875 
L 46.296875 -0.484375 
Q 42.78125 -0.296875 35.5 -0.140625 
Q 28.21875 0 25.875 0 
Q 21.140625 0 13.125 -0.125 
Q 5.125 -0.25 2.25 -0.484375 
z
" id="PalatinoLinotype-Roman-50"/>
       <path d="M 3.03125 29.828125 
Q 3.03125 38.53125 3.90625 45.484375 
Q 4.78125 52.4375 7.78125 57.875 
Q 10.796875 63.328125 15.3125 66.03125 
Q 19.828125 68.75 25.59375 68.75 
Q 32.125 68.75 37.078125 65.375 
Q 42.046875 62.015625 44.21875 55.03125 
Q 46.390625 48.046875 46.390625 36.03125 
Q 46.390625 16.5 40.40625 7.265625 
Q 34.421875 -1.953125 23.828125 -1.953125 
Q 18.5 -1.953125 14.421875 0.34375 
Q 10.359375 2.640625 7.734375 6.984375 
Q 5.125 11.328125 4.078125 17.234375 
Q 3.03125 23.140625 3.03125 29.828125 
z
M 11.421875 32.671875 
Q 11.421875 23.390625 12.8125 15.765625 
Q 14.203125 8.15625 17.453125 4.8125 
Q 20.703125 1.46875 25.203125 1.46875 
Q 29.546875 1.46875 32.453125 4.4375 
Q 35.359375 7.421875 36.6875 14.640625 
Q 38.03125 21.875 38.03125 32.515625 
Q 38.03125 49.21875 34.859375 57.21875 
Q 31.6875 65.234375 24.359375 65.234375 
Q 17.96875 65.234375 14.6875 59.03125 
Q 11.421875 52.828125 11.421875 32.671875 
z
" id="PalatinoLinotype-Roman-48"/>
       <path d="M 7.46875 55.171875 
L 6.59375 55.46875 
L 6.109375 59.46875 
L 6.59375 59.96875 
Q 11.46875 61.375 18.9375 64.5 
Q 26.421875 67.625 29.640625 69.28125 
L 30.90625 68.796875 
Q 30.125 47.40625 30.125 43.109375 
L 30.125 25 
Q 30.125 18.3125 30.265625 12.421875 
Q 30.421875 6.546875 30.703125 5.484375 
Q 31 4.4375 31.703125 3.84375 
Q 32.421875 3.265625 33.6875 3.09375 
Q 34.96875 2.9375 41.265625 2.59375 
L 41.609375 2.203125 
L 41.609375 0 
L 41.265625 -0.390625 
Q 30.5625 0 26.171875 0 
Q 22.859375 0 9.90625 -0.390625 
L 9.578125 0 
L 9.578125 2.203125 
L 9.96875 2.59375 
Q 17.28125 3.125 18.328125 3.359375 
Q 19.390625 3.609375 19.953125 4.21875 
Q 20.515625 4.828125 20.84375 6.53125 
Q 21.1875 8.25 21.40625 16.640625 
Q 21.625 25.046875 21.625 25.25 
L 21.625 44.484375 
Q 21.625 58.640625 21.546875 59.859375 
Q 21.484375 61.078125 20.703125 61.078125 
Q 20.515625 61.078125 20.171875 60.984375 
Q 19.828125 60.890625 18.015625 60.109375 
L 13.1875 57.953125 
Q 10.15625 56.640625 7.46875 55.171875 
z
" id="PalatinoLinotype-Roman-49"/>
       <path d="M 42.1875 67.53125 
L 42.1875 66.9375 
Q 36.859375 65.828125 30.046875 61.625 
Q 23.25 57.421875 18.609375 50.34375 
Q 13.96875 43.265625 13.234375 33.25 
Q 14.890625 34.421875 17.046875 36.078125 
Q 19.828125 38.1875 21.109375 38.96875 
Q 22.40625 39.75 24.578125 40.328125 
Q 26.765625 40.921875 29.59375 40.921875 
Q 34.625 40.921875 38.625 38.6875 
Q 42.625 36.46875 44.625 32.140625 
Q 46.625 27.828125 46.625 22.078125 
Q 46.625 13.921875 42.671875 8.421875 
Q 38.71875 2.9375 34.265625 0.5625 
Q 29.828125 -1.8125 24.078125 -1.8125 
Q 14.265625 -1.8125 8.84375 5.53125 
Q 3.421875 12.890625 3.421875 24.65625 
Q 3.421875 32.46875 5.6875 39.671875 
Q 7.953125 46.875 12.59375 52.703125 
Q 17.234375 58.546875 24.4375 63.078125 
Q 31.640625 67.625 38.625 69.234375 
z
M 12.3125 20.953125 
Q 12.3125 16.109375 13.703125 11.375 
Q 15.09375 6.640625 18.15625 4.046875 
Q 21.234375 1.46875 25.390625 1.46875 
Q 28.953125 1.46875 31.984375 3.46875 
Q 35.015625 5.46875 36.59375 9.734375 
Q 38.1875 14.015625 38.1875 18.75 
Q 38.1875 23.484375 36.625 27.21875 
Q 35.0625 30.953125 32.078125 33.03125 
Q 29.109375 35.109375 25.140625 35.109375 
Q 22.21875 35.109375 19.28125 33.6875 
Q 16.359375 32.28125 14.765625 30.46875 
Q 13.1875 28.65625 12.75 26.625 
Q 12.3125 24.609375 12.3125 20.953125 
z
" id="PalatinoLinotype-Roman-54"/>
      </defs>
      <g style="fill:#262626;" transform="translate(105.368895 323.756775)scale(0.11 -0.11)">
       <use xlink:href="#PalatinoLinotype-Roman-50"/>
       <use x="50" xlink:href="#PalatinoLinotype-Roman-48"/>
       <use x="100" xlink:href="#PalatinoLinotype-Roman-49"/>
       <use x="150" xlink:href="#PalatinoLinotype-Roman-54"/>
      </g>
     </g>
    </g>
    <g id="xtick_2">
     <g id="line2d_2">
      <path clip-path="url(#p1ec7dba4d0)" d="M 192.269371 306.3024 
L 192.269371 41.2992 
" style="fill:none;stroke:#ffffff;stroke-linecap:round;"/>
     </g>
     <g id="text_2">
      <!-- 2020 -->
      <g style="fill:#262626;" transform="translate(181.269371 323.756775)scale(0.11 -0.11)">
       <use xlink:href="#PalatinoLinotype-Roman-50"/>
       <use x="50" xlink:href="#PalatinoLinotype-Roman-48"/>
       <use x="100" xlink:href="#PalatinoLinotype-Roman-50"/>
       <use x="150" xlink:href="#PalatinoLinotype-Roman-48"/>
      </g>
     </g>
    </g>
    <g id="xtick_3">
     <g id="line2d_3">
      <path clip-path="url(#p1ec7dba4d0)" d="M 268.169847 306.3024 
L 268.169847 41.2992 
" style="fill:none;stroke:#ffffff;stroke-linecap:round;"/>
     </g>
     <g id="text_3">
      <!-- 2025 -->
      <defs>
       <path d="M 6.390625 0.6875 
Q 5.21875 4.5 1.5625 13.28125 
L 1.65625 13.921875 
L 3.375 14.890625 
L 3.953125 14.75 
Q 8.015625 7.375 9.015625 6.375 
Q 10.015625 5.375 13.578125 4.03125 
Q 17.140625 2.6875 21.09375 2.6875 
Q 26.03125 2.6875 29.828125 4.828125 
Q 33.640625 6.984375 35.5 11.171875 
Q 37.359375 15.375 37.359375 20.703125 
Q 37.359375 25.921875 35.515625 29.703125 
Q 33.6875 33.5 29.921875 35.453125 
Q 26.171875 37.40625 21.828125 37.40625 
Q 19.09375 37.40625 16.875 36.671875 
Q 14.65625 35.9375 13.15625 34.78125 
Q 11.671875 33.640625 9.625 31.390625 
L 7.625 31.984375 
L 8.15625 42.484375 
Q 8.34375 45.453125 8.34375 48.484375 
L 8.34375 57.171875 
Q 8.34375 61.078125 8.109375 64.65625 
Q 7.953125 66.84375 7.953125 67.4375 
L 8.59375 67.921875 
Q 16.0625 67.328125 25.640625 67.328125 
Q 32.90625 67.328125 43.0625 67.921875 
L 43.265625 67.4375 
Q 42.921875 65.046875 42.921875 62.984375 
Q 42.921875 61.96875 43.0625 59.578125 
L 42.578125 59.28125 
Q 37.015625 59.671875 27.640625 59.671875 
Q 14.890625 59.671875 12.84375 59.578125 
Q 12.109375 53.8125 11.8125 39.265625 
Q 15.828125 42.1875 19.046875 43.234375 
Q 22.265625 44.28125 26.03125 44.28125 
Q 31.34375 44.28125 36.21875 41.84375 
Q 41.109375 39.40625 43.53125 34.765625 
Q 45.953125 30.125 45.953125 24.75 
Q 45.953125 14.84375 37.765625 6.515625 
Q 29.59375 -1.8125 16.84375 -1.8125 
Q 13.421875 -1.8125 11.203125 -1.21875 
Q 8.984375 -0.640625 6.390625 0.6875 
z
" id="PalatinoLinotype-Roman-53"/>
      </defs>
      <g style="fill:#262626;" transform="translate(257.169847 323.756775)scale(0.11 -0.11)">
       <use xlink:href="#PalatinoLinotype-Roman-50"/>
       <use x="50" xlink:href="#PalatinoLinotype-Roman-48"/>
       <use x="100" xlink:href="#PalatinoLinotype-Roman-50"/>
       <use x="150" xlink:href="#PalatinoLinotype-Roman-53"/>
      </g>
     </g>
    </g>
    <g id="xtick_4">
     <g id="line2d_4">
      <path clip-path="url(#p1ec7dba4d0)" d="M 344.070323 306.3024 
L 344.070323 41.2992 
" style="fill:none;stroke:#ffffff;stroke-linecap:round;"/>
     </g>
     <g id="text_4">
      <!-- 2030 -->
      <defs>
       <path d="M 5.078125 1.125 
Q 4.203125 6.890625 1.8125 14.984375 
L 2.046875 15.71875 
L 3.859375 16.40625 
L 4.546875 16.0625 
Q 6.25 11.578125 8.203125 8.640625 
Q 10.15625 5.71875 13.8125 4.15625 
Q 17.484375 2.59375 21.734375 2.59375 
Q 27.09375 2.59375 30.25 4.828125 
Q 33.40625 7.078125 35.109375 10.9375 
Q 36.8125 14.796875 36.8125 19.625 
Q 36.8125 26.125 33.421875 29.828125 
Q 30.03125 33.546875 24.03125 33.546875 
Q 21.96875 33.546875 20.359375 33.15625 
Q 18.75 32.765625 15.375 31.390625 
L 14.84375 31.890625 
L 15.921875 37.203125 
Q 19.875 36.96875 21.1875 36.96875 
Q 26.90625 36.96875 30.25 41.015625 
Q 33.59375 45.0625 33.59375 50.59375 
Q 33.59375 55.421875 30.09375 58.6875 
Q 26.609375 61.96875 21.484375 61.96875 
Q 18.109375 61.96875 15.109375 60.59375 
Q 12.109375 59.234375 10.15625 57.28125 
Q 9.328125 55.609375 7.515625 50.734375 
L 7.03125 50.296875 
L 4.828125 50.296875 
L 4.4375 50.734375 
L 7.375 62.0625 
Q 13.484375 68.953125 23.921875 68.953125 
Q 31.890625 68.953125 36.796875 64.71875 
Q 41.703125 60.5 41.703125 54.109375 
Q 41.703125 49.21875 38.8125 45.140625 
Q 35.9375 41.0625 30.8125 37.453125 
Q 39.265625 36.421875 42.703125 32.390625 
Q 46.140625 28.375 46.140625 22.65625 
Q 46.140625 13.28125 37.640625 5.78125 
Q 29.15625 -1.703125 18.015625 -1.703125 
Q 14.703125 -1.703125 11.8125 -1.140625 
Q 8.9375 -0.59375 5.078125 1.125 
z
" id="PalatinoLinotype-Roman-51"/>
      </defs>
      <g style="fill:#262626;" transform="translate(333.070323 323.756775)scale(0.11 -0.11)">
       <use xlink:href="#PalatinoLinotype-Roman-50"/>
       <use x="50" xlink:href="#PalatinoLinotype-Roman-48"/>
       <use x="100" xlink:href="#PalatinoLinotype-Roman-51"/>
       <use x="150" xlink:href="#PalatinoLinotype-Roman-48"/>
      </g>
     </g>
    </g>
   </g>
   <g id="matplotlib.axis_2">
    <g id="ytick_1">
     <g id="line2d_5">
      <path clip-path="url(#p1ec7dba4d0)" d="M 104.389784 294.030662 
L 367.930216 294.030662 
" style="fill:none;stroke:#ffffff;stroke-linecap:round;"/>
     </g>
     <g id="text_5">
      <!-- flooded_la -->
      <defs>
       <path d="M 28.125 2.484375 
L 28.515625 2.09375 
L 28.515625 0.046875 
L 28.125 -0.390625 
Q 26.609375 -0.390625 22.40625 -0.203125 
Q 18.609375 0 14.546875 0 
Q 9.28125 0 2.78125 -0.390625 
L 2.390625 0.046875 
L 2.390625 2.09375 
L 2.78125 2.484375 
Q 7.515625 2.78125 8.15625 2.921875 
Q 8.796875 3.078125 9.234375 3.53125 
Q 9.671875 4 9.84375 4.953125 
Q 10.015625 5.90625 10.234375 11.25 
Q 10.453125 16.609375 10.453125 19.34375 
L 10.453125 38.1875 
L 4.15625 37.84375 
L 3.71875 38.234375 
L 3.71875 39.453125 
L 4.046875 39.9375 
L 10.453125 43.21875 
L 10.453125 46.140625 
Q 10.453125 51.03125 10.890625 53.546875 
Q 11.328125 56.0625 12.515625 58.171875 
Q 13.71875 60.296875 16.6875 63.546875 
Q 19.671875 66.796875 21.921875 68.875 
Q 24.171875 70.953125 25.828125 71.65625 
Q 27.484375 72.359375 29.734375 72.359375 
Q 31.59375 72.359375 33.734375 71.625 
L 33.6875 63.625 
L 32.5625 63.1875 
Q 29.828125 65.625 26.21875 65.625 
Q 23.6875 65.625 21.828125 64.578125 
Q 19.96875 63.53125 19.28125 61.15625 
Q 18.609375 58.796875 18.609375 53.328125 
L 18.609375 43.21875 
L 23.828125 43.21875 
Q 27.875 43.21875 31.5 43.5 
L 31.9375 42.96875 
L 31.0625 38.671875 
L 30.609375 38.1875 
Q 29.15625 38.234375 28.71875 38.234375 
L 22.359375 38.28125 
L 18.609375 38.28125 
L 18.609375 18.609375 
Q 18.609375 17.046875 18.828125 11.453125 
Q 19.046875 5.859375 19.234375 4.875 
Q 19.4375 3.90625 19.890625 3.46875 
Q 20.359375 3.03125 21.40625 2.828125 
Q 22.46875 2.640625 28.125 2.484375 
z
" id="PalatinoLinotype-Roman-102"/>
       <path d="M 18.265625 72.3125 
L 19.1875 71.734375 
Q 18.65625 66.109375 18.65625 49.21875 
L 18.65625 18.609375 
Q 18.65625 17.53125 18.84375 11.6875 
Q 19.046875 5.859375 19.265625 4.875 
Q 19.484375 3.90625 19.921875 3.46875 
Q 20.359375 3.03125 20.984375 2.90625 
Q 21.625 2.78125 26.265625 2.484375 
L 26.703125 2.09375 
L 26.703125 0.046875 
L 26.3125 -0.390625 
Q 20.21875 0 14.546875 0 
Q 8.9375 0 2.828125 -0.390625 
L 2.390625 0.046875 
L 2.390625 2.09375 
L 2.828125 2.484375 
Q 7.5625 2.78125 8.171875 2.921875 
Q 8.796875 3.078125 9.25 3.53125 
Q 9.71875 4 9.890625 4.953125 
Q 10.0625 5.90625 10.28125 11.25 
Q 10.5 16.609375 10.5 19.34375 
L 10.5 44.625 
L 10.296875 54.984375 
Q 10.15625 60.40625 9.984375 62.5 
Q 9.8125 64.59375 9.515625 64.984375 
Q 9.234375 65.375 8.5 65.5625 
Q 7.765625 65.765625 2.59375 65.765625 
L 2.15625 66.21875 
L 2.15625 68.265625 
L 2.546875 68.703125 
Q 11.859375 69.78125 18.265625 72.3125 
z
" id="PalatinoLinotype-Roman-108"/>
       <path d="M 3.328125 22.359375 
Q 3.328125 28.171875 5.71875 33.5625 
Q 8.109375 38.96875 14.03125 42.890625 
Q 19.96875 46.828125 28.125 46.828125 
Q 38.375 46.828125 44.8125 40.359375 
Q 51.265625 33.890625 51.265625 23.734375 
Q 51.265625 12.546875 43.859375 5.3125 
Q 36.46875 -1.90625 26.03125 -1.90625 
Q 19.1875 -1.90625 13.8125 1.78125 
Q 8.453125 5.46875 5.890625 10.78125 
Q 3.328125 16.109375 3.328125 22.359375 
z
M 12.546875 25.734375 
Q 12.546875 18.890625 14.296875 13.5 
Q 16.0625 8.109375 19.875 4.828125 
Q 23.6875 1.5625 28.5625 1.5625 
Q 34.328125 1.5625 38.078125 6.125 
Q 41.84375 10.6875 41.84375 19.875 
Q 41.84375 30.28125 37.765625 36.921875 
Q 33.6875 43.5625 26.03125 43.5625 
Q 19.671875 43.5625 16.109375 38.96875 
Q 12.546875 34.375 12.546875 25.734375 
z
M 27.34375 49.609375 
z
M 26.609375 -2.9375 
z
" id="PalatinoLinotype-Roman-111"/>
       <path d="M 32.859375 66.21875 
L 32.859375 68.265625 
L 33.25 68.703125 
Q 42.578125 69.78125 48.96875 72.3125 
L 49.90625 71.734375 
Q 49.359375 66.109375 49.359375 49.21875 
L 49.359375 17.234375 
Q 49.359375 12.3125 49.53125 8.625 
Q 49.703125 4.9375 50.140625 4.25 
Q 50.59375 3.5625 51.59375 3.125 
Q 52.59375 2.6875 57.28125 2.296875 
L 57.71875 1.90625 
L 57.71875 0.046875 
L 57.28125 -0.390625 
Q 52 -0.046875 49.078125 -0.046875 
Q 46.4375 -0.046875 41.546875 -0.390625 
L 41.015625 0.140625 
Q 41.15625 4.9375 41.15625 6.84375 
Q 41.15625 7.078125 41.21875 8.6875 
Q 38.53125 6.734375 35.84375 4.34375 
Q 31.890625 0.828125 30.671875 -0.046875 
Q 28.421875 -1.171875 24.265625 -1.171875 
Q 17.53125 -1.171875 12.8125 2.140625 
Q 8.109375 5.46875 6.109375 10.609375 
Q 4.109375 15.765625 4.109375 21.1875 
Q 4.109375 26.703125 6.171875 31.8125 
Q 8.25 36.921875 12.078125 39.265625 
Q 15.921875 41.609375 20.4375 44.109375 
Q 24.953125 46.625 29.390625 46.625 
Q 35.59375 46.625 41.21875 43.5625 
L 41.015625 54.4375 
Q 40.921875 60.109375 40.71875 62.328125 
Q 40.53125 64.546875 40.234375 64.953125 
Q 39.9375 65.375 39.234375 65.5625 
Q 38.53125 65.765625 33.296875 65.765625 
z
M 41.21875 35.203125 
Q 38.1875 38.625 34.5 40.421875 
Q 30.8125 42.234375 27.09375 42.234375 
Q 23 42.234375 19.453125 40.015625 
Q 15.921875 37.796875 14.359375 33.421875 
Q 12.796875 29.046875 12.796875 23.921875 
Q 12.796875 15.375 17.109375 10.203125 
Q 21.4375 5.03125 27.984375 5.03125 
Q 31.546875 5.03125 34.296875 6.65625 
Q 37.0625 8.296875 38.84375 11.078125 
Q 40.625 13.875 40.921875 16.65625 
Q 41.21875 19.4375 41.21875 26.859375 
z
" id="PalatinoLinotype-Roman-100"/>
       <path d="M 43.171875 7.171875 
L 41.609375 3.65625 
Q 36.53125 0.390625 32.546875 -0.578125 
Q 28.5625 -1.5625 25.4375 -1.5625 
Q 19.578125 -1.5625 14.328125 0.734375 
Q 9.078125 3.03125 5.78125 8.5 
Q 2.484375 13.96875 2.484375 21.6875 
Q 2.484375 26.8125 3.75 30.9375 
Q 5.03125 35.0625 6.421875 37.0625 
Q 7.8125 39.0625 11.125 41.5 
Q 14.453125 43.953125 18.15625 45.40625 
Q 21.875 46.875 26.171875 46.875 
Q 32.03125 46.875 36.5 44.109375 
Q 40.96875 41.359375 42.765625 37.0625 
Q 44.578125 32.765625 44.578125 27.9375 
Q 44.578125 26.421875 44.4375 25 
L 43.890625 24.46875 
Q 40.578125 23.734375 34.953125 23.484375 
Q 29.34375 23.25 27.546875 23.25 
L 11.859375 23.25 
Q 11.96875 13.140625 16.9375 8.34375 
Q 21.921875 3.5625 29.15625 3.5625 
Q 32.5625 3.5625 35.71875 4.734375 
Q 38.875 5.90625 42.390625 8.015625 
z
M 11.859375 27.15625 
Q 12.75 27 18.625 26.796875 
Q 24.515625 26.609375 27.34375 26.609375 
Q 34.125 26.609375 35.59375 26.859375 
Q 35.640625 28.03125 35.640625 28.65625 
Q 35.640625 36.234375 32.5625 39.921875 
Q 29.5 43.609375 24.171875 43.609375 
Q 18.359375 43.609375 15.109375 39.453125 
Q 11.859375 35.296875 11.859375 27.15625 
z
M 25.484375 49.609375 
z
M 24.90625 -2.9375 
z
" id="PalatinoLinotype-Roman-101"/>
       <path d="M 0 -16.015625 
L 0 -10.15625 
L 50 -10.15625 
L 50 -16.015625 
z
" id="PalatinoLinotype-Roman-95"/>
       <path d="M 10.359375 33.109375 
L 8.453125 33.59375 
L 8.0625 34.078125 
L 8.0625 40.140625 
Q 16.75 46.578125 24.953125 46.578125 
Q 30.5625 46.578125 34.265625 44.484375 
Q 37.984375 42.390625 39.640625 39.234375 
Q 41.3125 36.078125 41.3125 31.890625 
L 41.0625 22.078125 
L 41.0625 7.515625 
Q 41.0625 4.546875 41.46875 3.90625 
Q 41.890625 3.265625 42.421875 3.046875 
Q 42.96875 2.828125 44.4375 2.6875 
L 47.21875 2.4375 
L 47.609375 2 
L 47.609375 0.046875 
L 47.21875 -0.34375 
Q 43.65625 -0.046875 40.578125 -0.046875 
Q 37.640625 -0.046875 33.546875 -0.34375 
L 32.8125 0.34375 
L 33.015625 8.203125 
L 22.359375 -0.09375 
Q 19.671875 -1.21875 16.5 -1.21875 
Q 12.59375 -1.21875 9.78125 0.1875 
Q 6.984375 1.609375 5.484375 4.140625 
Q 4 6.6875 4 10.296875 
Q 4 17.484375 8.484375 21.5 
Q 12.984375 25.53125 33.015625 28.375 
Q 33.015625 35.59375 29.78125 38.546875 
Q 26.5625 41.5 21.140625 41.5 
Q 18.3125 41.5 15.984375 40.671875 
Q 13.671875 39.84375 13.328125 39.328125 
Q 12.984375 38.8125 10.6875 33.34375 
z
M 33.015625 25.390625 
Q 19.34375 23.09375 15.96875 20.453125 
Q 12.59375 17.828125 12.59375 12.3125 
Q 12.59375 4.6875 20.171875 4.6875 
Q 26.65625 4.6875 33.015625 12.203125 
z
M 24.703125 49.609375 
z
M 23.6875 -2.9375 
z
" id="PalatinoLinotype-Roman-97"/>
      </defs>
      <g style="fill:#262626;" transform="translate(43.105566 298.00785)scale(0.11 -0.11)">
       <use xlink:href="#PalatinoLinotype-Roman-102"/>
       <use x="33.300781" xlink:href="#PalatinoLinotype-Roman-108"/>
       <use x="62.402344" xlink:href="#PalatinoLinotype-Roman-111"/>
       <use x="116.992188" xlink:href="#PalatinoLinotype-Roman-111"/>
       <use x="171.582031" xlink:href="#PalatinoLinotype-Roman-100"/>
       <use x="232.666016" xlink:href="#PalatinoLinotype-Roman-101"/>
       <use x="280.566406" xlink:href="#PalatinoLinotype-Roman-100"/>
       <use x="341.650391" xlink:href="#PalatinoLinotype-Roman-95"/>
       <use x="391.650391" xlink:href="#PalatinoLinotype-Roman-108"/>
       <use x="420.751953" xlink:href="#PalatinoLinotype-Roman-97"/>
      </g>
     </g>
    </g>
    <g id="ytick_2">
     <g id="line2d_6">
      <path clip-path="url(#p1ec7dba4d0)" d="M 104.389784 256.080424 
L 367.930216 256.080424 
" style="fill:none;stroke:#ffffff;stroke-linecap:round;"/>
     </g>
     <g id="text_6">
      <!-- vrla -->
      <defs>
       <path d="M 24.90625 -0.875 
L 21.875 6.78125 
L 18.265625 15.140625 
L 8.25 38.421875 
Q 7.28125 40.71875 6.515625 41.453125 
Q 5.765625 42.1875 4.984375 42.328125 
Q 4.203125 42.484375 1.859375 42.578125 
L 1.46875 42.96875 
L 1.46875 45.0625 
L 1.90625 45.515625 
Q 8.734375 45.171875 12.75 45.171875 
Q 18.40625 45.171875 24.125 45.515625 
L 24.515625 45.125 
L 24.515625 42.96875 
L 24.125 42.578125 
Q 19.046875 42.4375 18.21875 41.875 
Q 17.390625 41.3125 17.390625 40.4375 
Q 17.390625 38.96875 19.34375 34.125 
L 25.296875 19.28125 
L 29.984375 8.203125 
L 34.859375 19.28125 
L 38.921875 29.34375 
Q 41.265625 35.0625 41.9375 37.453125 
Q 42.625 39.84375 42.625 40.625 
Q 42.625 41.546875 41.546875 41.96875 
Q 40.484375 42.390625 36.140625 42.578125 
L 35.75 42.96875 
L 35.75 45.0625 
L 36.1875 45.515625 
Q 42.234375 45.171875 45.265625 45.171875 
Q 47.796875 45.171875 53.953125 45.515625 
L 54.390625 45.0625 
L 54.390625 42.96875 
L 54 42.578125 
Q 51.125 42.328125 50.171875 41.734375 
Q 49.21875 41.15625 48.3125 39.46875 
Q 47.40625 37.796875 43.109375 29 
L 38.421875 19 
Q 37.25 16.453125 29.984375 -0.875 
z
" id="PalatinoLinotype-Roman-118"/>
       <path d="M 18.75 46.53125 
L 19.671875 45.90625 
Q 19.390625 43.0625 19.234375 35.84375 
L 22.90625 40.484375 
Q 24.703125 42.78125 26.09375 44.015625 
Q 27.484375 45.265625 29.34375 45.9375 
Q 31.203125 46.625 33.15625 46.625 
Q 35.296875 46.625 37.203125 45.75 
L 37.546875 45.0625 
Q 36.765625 38.578125 36.671875 33.640625 
L 34.46875 33.640625 
Q 32.515625 38.140625 28.171875 38.140625 
Q 25.140625 38.140625 22.890625 36.203125 
Q 20.65625 34.28125 19.890625 31.375 
Q 19.140625 28.46875 19.140625 24.03125 
L 19.140625 18.609375 
Q 19.140625 17.140625 19.328125 11.421875 
Q 19.53125 5.71875 19.75 4.828125 
Q 19.96875 3.953125 20.4375 3.53125 
Q 20.90625 3.125 21.65625 2.96875 
Q 22.40625 2.828125 28.609375 2.484375 
L 29.046875 2.09375 
L 29.046875 0.046875 
L 28.609375 -0.390625 
Q 22.125 0 15.046875 0 
Q 9.421875 0 3.328125 -0.390625 
L 2.875 0.046875 
L 2.875 2.09375 
L 3.328125 2.484375 
Q 8.0625 2.78125 8.671875 2.921875 
Q 9.28125 3.078125 9.734375 3.53125 
Q 10.203125 4 10.375 4.953125 
Q 10.546875 5.90625 10.765625 11.25 
Q 10.984375 16.609375 10.984375 19.34375 
L 10.984375 28.953125 
Q 10.984375 30.90625 10.78125 34.265625 
Q 10.59375 37.640625 10.46875 38.421875 
Q 10.359375 39.203125 9.71875 39.5625 
Q 9.078125 39.9375 7.171875 39.9375 
L 3.078125 39.984375 
L 2.640625 40.375 
L 2.640625 42.484375 
L 3.03125 42.875 
Q 12.359375 44 18.75 46.53125 
z
" id="PalatinoLinotype-Roman-114"/>
      </defs>
      <g style="fill:#262626;" transform="translate(75.627753 260.057612)scale(0.11 -0.11)">
       <use xlink:href="#PalatinoLinotype-Roman-118"/>
       <use x="56.494141" xlink:href="#PalatinoLinotype-Roman-114"/>
       <use x="95.996094" xlink:href="#PalatinoLinotype-Roman-108"/>
       <use x="125.097656" xlink:href="#PalatinoLinotype-Roman-97"/>
      </g>
     </g>
    </g>
    <g id="ytick_3">
     <g id="line2d_7">
      <path clip-path="url(#p1ec7dba4d0)" d="M 104.389784 218.130187 
L 367.930216 218.130187 
" style="fill:none;stroke:#ffffff;stroke-linecap:round;"/>
     </g>
     <g id="text_7">
      <!-- li_ion_lfp -->
      <defs>
       <path d="M 14.0625 68.359375 
Q 16.359375 68.359375 17.96875 66.75 
Q 19.578125 65.140625 19.578125 62.84375 
Q 19.578125 60.59375 17.96875 58.984375 
Q 16.359375 57.375 14.0625 57.375 
Q 11.8125 57.375 10.171875 58.953125 
Q 8.546875 60.546875 8.546875 62.84375 
Q 8.546875 65.140625 10.171875 66.75 
Q 11.8125 68.359375 14.0625 68.359375 
z
M 18.21875 46.53125 
L 19.140625 45.90625 
Q 18.609375 39.5 18.609375 29.640625 
L 18.609375 18.609375 
Q 18.609375 17.53125 18.796875 11.6875 
Q 19 5.859375 19.21875 4.875 
Q 19.4375 3.90625 19.875 3.46875 
Q 20.3125 3.03125 20.9375 2.90625 
Q 21.578125 2.78125 26.21875 2.484375 
L 26.65625 2.09375 
L 26.65625 0.046875 
L 26.265625 -0.390625 
Q 20.171875 0 14.5 0 
Q 8.890625 0 2.78125 -0.390625 
L 2.34375 0.046875 
L 2.34375 2.09375 
L 2.78125 2.484375 
Q 7.515625 2.78125 8.125 2.921875 
Q 8.734375 3.078125 9.203125 3.53125 
Q 9.671875 4 9.84375 4.953125 
Q 10.015625 5.90625 10.234375 11.25 
Q 10.453125 16.609375 10.453125 19.34375 
L 10.453125 28.953125 
Q 10.453125 30.90625 10.25 34.265625 
Q 10.0625 37.640625 9.9375 38.421875 
Q 9.8125 39.203125 9.171875 39.5625 
Q 8.546875 39.9375 6.640625 39.9375 
L 2.546875 39.984375 
L 2.09375 40.375 
L 2.09375 42.484375 
L 2.484375 42.875 
Q 11.8125 44 18.21875 46.53125 
z
M 14.40625 -2.9375 
z
" id="PalatinoLinotype-Roman-105"/>
       <path d="M 16.703125 46.53125 
L 17.625 45.90625 
Q 17.328125 42.625 17.234375 37.3125 
Q 21.140625 40.53125 24.65625 43.84375 
Q 25.6875 44.78125 26.578125 45.21875 
Q 27.484375 45.65625 29.578125 46.140625 
Q 31.6875 46.625 33.890625 46.625 
Q 37.59375 46.625 41.078125 45.109375 
Q 44.578125 43.609375 46.359375 41.53125 
Q 48.140625 39.453125 48.828125 36.625 
Q 49.515625 33.796875 49.515625 29.640625 
L 49.515625 21.046875 
Q 49.515625 20.21875 49.75 8.890625 
Q 49.859375 4.25 50.78125 3.359375 
Q 51.703125 2.484375 56.84375 2.484375 
L 57.234375 2.09375 
L 57.234375 0 
L 56.84375 -0.390625 
Q 50.640625 0 48.4375 0 
Q 47.171875 0 41.3125 -0.390625 
L 40.71875 0.140625 
Q 41.359375 6.5 41.359375 16.703125 
L 41.359375 23.09375 
Q 41.359375 28.859375 41.09375 31.390625 
Q 40.828125 33.9375 39.453125 36.015625 
Q 38.09375 38.09375 35.796875 39.234375 
Q 33.5 40.375 30.328125 40.375 
Q 27.78125 40.375 25.96875 39.859375 
Q 24.171875 39.359375 21.921875 37.765625 
Q 19.671875 36.1875 18.59375 34.796875 
Q 17.53125 33.40625 17.3125 32.203125 
Q 17.09375 31 17.09375 27.09375 
L 17.09375 18.609375 
Q 17.09375 17.53125 17.28125 11.6875 
Q 17.484375 5.859375 17.703125 4.875 
Q 17.921875 3.90625 18.359375 3.46875 
Q 18.796875 3.03125 19.421875 2.90625 
Q 20.0625 2.78125 24.703125 2.484375 
L 25.140625 2.09375 
L 25.140625 0.046875 
L 24.75 -0.390625 
Q 18.65625 0 12.984375 0 
Q 7.375 0 1.265625 -0.390625 
L 0.828125 0.046875 
L 0.828125 2.09375 
L 1.265625 2.484375 
Q 6 2.78125 6.609375 2.921875 
Q 7.234375 3.078125 7.6875 3.53125 
Q 8.15625 4 8.328125 4.953125 
Q 8.5 5.90625 8.71875 11.25 
Q 8.9375 16.609375 8.9375 19.34375 
L 8.9375 28.953125 
Q 8.9375 30.90625 8.734375 34.265625 
Q 8.546875 37.640625 8.421875 38.421875 
Q 8.296875 39.203125 7.65625 39.5625 
Q 7.03125 39.9375 5.125 39.9375 
L 1.03125 39.984375 
L 0.59375 40.375 
L 0.59375 42.484375 
L 0.984375 42.875 
Q 10.296875 44 16.703125 46.53125 
z
" id="PalatinoLinotype-Roman-110"/>
       <path d="M 18.0625 47.125 
L 19 46.53125 
Q 18.5 40.96875 18.453125 36.671875 
Q 25.09375 42.71875 27.703125 44.671875 
Q 30.328125 46.625 36.71875 46.625 
Q 40.71875 46.625 43.984375 45.53125 
Q 47.265625 44.4375 50.046875 41.921875 
Q 52.828125 39.40625 54.4375 35.625 
Q 56.0625 31.84375 56.0625 26.859375 
Q 56.0625 23.34375 54.9375 19.71875 
Q 53.8125 16.109375 51.96875 13.03125 
Q 50.140625 9.96875 49.046875 8.953125 
Q 47.953125 7.953125 44.53125 5.953125 
Q 41.453125 4.109375 38.421875 1.953125 
Q 36.328125 0.4375 35.5 0 
Q 34.671875 -0.4375 32.71875 -0.875 
Q 30.765625 -1.3125 28.5625 -1.3125 
Q 23.484375 -1.3125 18.453125 1.265625 
L 18.453125 -9.125 
Q 18.453125 -10.203125 18.640625 -16.03125 
Q 18.84375 -21.875 19.0625 -22.84375 
Q 19.28125 -23.828125 19.71875 -24.265625 
Q 20.171875 -24.703125 20.796875 -24.828125 
Q 21.4375 -24.953125 26.078125 -25.25 
L 26.515625 -25.640625 
L 26.515625 -27.6875 
L 26.125 -28.125 
Q 20.015625 -27.734375 14.40625 -27.734375 
Q 8.796875 -27.734375 2.6875 -28.125 
L 2.25 -27.6875 
L 2.25 -25.640625 
L 2.6875 -25.25 
Q 7.375 -24.953125 8 -24.796875 
Q 8.640625 -24.65625 9.109375 -24.1875 
Q 9.578125 -23.734375 9.734375 -22.703125 
Q 9.90625 -21.6875 10.125 -16.15625 
Q 10.359375 -10.640625 10.359375 -7.859375 
L 10.359375 29.546875 
Q 10.359375 32.078125 10.125 35.421875 
Q 9.90625 38.765625 9.765625 39.296875 
Q 9.625 39.84375 9.0625 40.1875 
Q 8.5 40.53125 6.546875 40.53125 
L 2.4375 40.578125 
L 2 40.96875 
L 2 43.0625 
L 2.390625 43.453125 
Q 11.71875 44.578125 18.0625 47.125 
z
M 18.453125 9.671875 
Q 20.703125 7.375 24.015625 5.6875 
Q 27.34375 4 31.34375 4 
Q 36.078125 4 39.71875 6.390625 
Q 43.359375 8.796875 45.359375 13.40625 
Q 47.359375 18.015625 47.359375 23.640625 
Q 47.359375 28.171875 45.578125 32.078125 
Q 43.796875 35.984375 40.0625 38.234375 
Q 36.328125 40.484375 32.125 40.484375 
Q 29.546875 40.484375 27.09375 39.578125 
Q 24.65625 38.671875 22.53125 36.90625 
Q 20.40625 35.15625 19.484375 33.5625 
Q 18.5625 31.984375 18.5 30.9375 
Q 18.453125 29.890625 18.453125 28.609375 
z
" id="PalatinoLinotype-Roman-112"/>
      </defs>
      <g style="fill:#262626;" transform="translate(48.399316 222.109952)scale(0.11 -0.11)">
       <use xlink:href="#PalatinoLinotype-Roman-108"/>
       <use x="29.101562" xlink:href="#PalatinoLinotype-Roman-105"/>
       <use x="58.203125" xlink:href="#PalatinoLinotype-Roman-95"/>
       <use x="108.203125" xlink:href="#PalatinoLinotype-Roman-105"/>
       <use x="137.304688" xlink:href="#PalatinoLinotype-Roman-111"/>
       <use x="191.894531" xlink:href="#PalatinoLinotype-Roman-110"/>
       <use x="250.097656" xlink:href="#PalatinoLinotype-Roman-95"/>
       <use x="300.097656" xlink:href="#PalatinoLinotype-Roman-108"/>
       <use x="329.199219" xlink:href="#PalatinoLinotype-Roman-102"/>
       <use x="362.5" xlink:href="#PalatinoLinotype-Roman-112"/>
      </g>
     </g>
    </g>
    <g id="ytick_4">
     <g id="line2d_8">
      <path clip-path="url(#p1ec7dba4d0)" d="M 104.389784 180.179949 
L 367.930216 180.179949 
" style="fill:none;stroke:#ffffff;stroke-linecap:round;"/>
     </g>
     <g id="text_8">
      <!-- li_ion_nca -->
      <defs>
       <path d="M 42.390625 5.21875 
L 40.4375 1.953125 
Q 34.125 -1.515625 26.375 -1.515625 
Q 15.625 -1.515625 9.765625 4.875 
Q 3.90625 11.28125 3.90625 21.390625 
Q 3.90625 25.984375 4.90625 29.5625 
Q 5.90625 33.15625 7.4375 35.5 
Q 8.984375 37.84375 10.84375 39.203125 
Q 12.703125 40.578125 17.109375 43.015625 
Q 21.53125 45.453125 23.78125 46.203125 
Q 26.03125 46.96875 29.984375 46.96875 
Q 37.546875 46.96875 42.390625 44.09375 
Q 41.453125 38.578125 40.96875 31.78125 
L 40.53125 31.390625 
L 38.53125 31.390625 
L 38.09375 31.84375 
Q 37.890625 35.9375 37.546875 37.34375 
Q 37.203125 38.765625 33.65625 40.375 
Q 30.125 42 26.125 42 
Q 22.125 42 19 40.3125 
Q 15.875 38.625 14.28125 34.78125 
Q 12.703125 30.953125 12.703125 25.640625 
Q 12.703125 21.140625 13.96875 16.859375 
Q 15.234375 12.59375 17.3125 9.78125 
Q 19.390625 6.984375 22.796875 5.265625 
Q 26.21875 3.5625 30.421875 3.5625 
Q 33.0625 3.5625 35.578125 4.25 
Q 38.09375 4.9375 41.359375 6.5 
z
" id="PalatinoLinotype-Roman-99"/>
      </defs>
      <g style="fill:#262626;" transform="translate(45.090722 184.157136)scale(0.11 -0.11)">
       <use xlink:href="#PalatinoLinotype-Roman-108"/>
       <use x="29.101562" xlink:href="#PalatinoLinotype-Roman-105"/>
       <use x="58.203125" xlink:href="#PalatinoLinotype-Roman-95"/>
       <use x="108.203125" xlink:href="#PalatinoLinotype-Roman-105"/>
       <use x="137.304688" xlink:href="#PalatinoLinotype-Roman-111"/>
       <use x="191.894531" xlink:href="#PalatinoLinotype-Roman-110"/>
       <use x="250.097656" xlink:href="#PalatinoLinotype-Roman-95"/>
       <use x="300.097656" xlink:href="#PalatinoLinotype-Roman-110"/>
       <use x="358.300781" xlink:href="#PalatinoLinotype-Roman-99"/>
       <use x="402.685547" xlink:href="#PalatinoLinotype-Roman-97"/>
      </g>
     </g>
    </g>
    <g id="ytick_5">
     <g id="line2d_9">
      <path clip-path="url(#p1ec7dba4d0)" d="M 104.389784 142.229711 
L 367.930216 142.229711 
" style="fill:none;stroke:#ffffff;stroke-linecap:round;"/>
     </g>
     <g id="text_9">
      <!-- li_ion_nmc -->
      <defs>
       <path d="M 17.96875 46.53125 
L 18.890625 45.90625 
Q 18.609375 42.671875 18.5 38.1875 
L 23.140625 42.4375 
Q 25.09375 44.234375 25.734375 44.75 
Q 26.375 45.265625 28.71875 45.9375 
Q 31.0625 46.625 33.640625 46.625 
Q 38.53125 46.625 42.1875 44.203125 
Q 45.84375 41.796875 47.609375 37.546875 
Q 54.203125 43.796875 55.296875 44.484375 
Q 56.390625 45.171875 58.78125 45.875 
Q 61.1875 46.578125 63.578125 46.578125 
Q 67.4375 46.578125 70.65625 44.921875 
Q 73.875 43.265625 75.78125 40.578125 
Q 77.6875 37.890625 78 34.765625 
Q 78.328125 31.640625 78.328125 26.171875 
L 78.328125 21.046875 
Q 78.328125 20.21875 78.609375 8.890625 
Q 78.71875 4.25 79.640625 3.359375 
Q 80.5625 2.484375 85.640625 2.484375 
L 86.03125 2.09375 
L 86.03125 0 
L 85.640625 -0.390625 
Q 79.4375 0 77.25 0 
Q 76.03125 0 70.171875 -0.390625 
L 69.53125 0.140625 
Q 70.171875 6.5 70.171875 16.703125 
L 70.171875 22.5625 
Q 70.171875 30.328125 69.4375 33.421875 
Q 68.703125 36.53125 66.015625 38.5 
Q 63.328125 40.484375 59.625 40.484375 
Q 56.984375 40.484375 54.6875 39.421875 
Q 52.390625 38.375 50.5625 36.296875 
Q 48.734375 34.234375 48.53125 32.453125 
Q 48.34375 30.671875 48.34375 25.875 
L 48.34375 19.78125 
Q 48.34375 17.625 48.53125 11.71875 
Q 48.734375 5.8125 48.953125 4.828125 
Q 49.171875 3.859375 49.625 3.4375 
Q 50.09375 3.03125 50.703125 2.90625 
Q 51.3125 2.78125 55.953125 2.484375 
L 56.390625 2.09375 
L 56.390625 0.046875 
L 56 -0.390625 
Q 49.90625 0 44.234375 0 
Q 39.015625 0 32.515625 -0.390625 
L 32.078125 0.046875 
L 32.078125 2.09375 
L 32.515625 2.484375 
Q 37.25 2.78125 37.859375 2.921875 
Q 38.484375 3.078125 38.9375 3.53125 
Q 39.40625 4 39.578125 4.953125 
Q 39.75 5.90625 39.96875 11.25 
Q 40.1875 16.609375 40.1875 19.34375 
L 40.1875 24.90625 
Q 40.1875 30.421875 39.421875 33.390625 
Q 38.671875 36.375 36.171875 38.421875 
Q 33.6875 40.484375 29.9375 40.484375 
Q 27 40.484375 24.578125 39.328125 
Q 22.171875 38.1875 20.625 36.5 
Q 19.09375 34.8125 18.71875 33.34375 
Q 18.359375 31.890625 18.359375 27 
L 18.359375 19.78125 
Q 18.359375 17.625 18.546875 11.71875 
Q 18.75 5.8125 18.96875 4.828125 
Q 19.1875 3.859375 19.65625 3.4375 
Q 20.125 3.03125 20.734375 2.90625 
Q 21.34375 2.78125 25.984375 2.484375 
L 26.421875 2.09375 
L 26.421875 0.046875 
L 26.03125 -0.390625 
Q 19.921875 0 14.265625 0 
Q 8.640625 0 2.546875 -0.390625 
L 2.09375 0.046875 
L 2.09375 2.09375 
L 2.546875 2.484375 
Q 7.28125 2.78125 7.890625 2.921875 
Q 8.5 3.078125 8.953125 3.53125 
Q 9.421875 4 9.59375 4.953125 
Q 9.765625 5.90625 9.984375 11.25 
Q 10.203125 16.609375 10.203125 19.34375 
L 10.203125 28.953125 
Q 10.203125 30.90625 10 34.265625 
Q 9.8125 37.640625 9.6875 38.421875 
Q 9.578125 39.203125 8.9375 39.5625 
Q 8.296875 39.9375 6.390625 39.9375 
L 2.296875 39.984375 
L 1.859375 40.375 
L 1.859375 42.484375 
L 2.25 42.875 
Q 11.578125 44 17.96875 46.53125 
z
" id="PalatinoLinotype-Roman-109"/>
      </defs>
      <g style="fill:#262626;" transform="translate(40.879784 146.206898)scale(0.11 -0.11)">
       <use xlink:href="#PalatinoLinotype-Roman-108"/>
       <use x="29.101562" xlink:href="#PalatinoLinotype-Roman-105"/>
       <use x="58.203125" xlink:href="#PalatinoLinotype-Roman-95"/>
       <use x="108.203125" xlink:href="#PalatinoLinotype-Roman-105"/>
       <use x="137.304688" xlink:href="#PalatinoLinotype-Roman-111"/>
       <use x="191.894531" xlink:href="#PalatinoLinotype-Roman-110"/>
       <use x="250.097656" xlink:href="#PalatinoLinotype-Roman-95"/>
       <use x="300.097656" xlink:href="#PalatinoLinotype-Roman-110"/>
       <use x="358.300781" xlink:href="#PalatinoLinotype-Roman-109"/>
       <use x="446.582031" xlink:href="#PalatinoLinotype-Roman-99"/>
      </g>
     </g>
    </g>
    <g id="ytick_6">
     <g id="line2d_10">
      <path clip-path="url(#p1ec7dba4d0)" d="M 104.389784 104.279473 
L 367.930216 104.279473 
" style="fill:none;stroke:#ffffff;stroke-linecap:round;"/>
     </g>
     <g id="text_10">
      <!-- li_ion_titan -->
      <defs>
       <path d="M 2.25 38.328125 
L 2.25 39.59375 
L 2.59375 40.09375 
Q 7.171875 41.796875 10.015625 43.265625 
Q 10.015625 56 9.71875 58.109375 
Q 14.75 59.859375 17.96875 61.859375 
L 19.140625 60.890625 
Q 18.65625 57.8125 17.96875 43.015625 
Q 20.40625 42.96875 23.25 42.96875 
Q 29 42.96875 31.5 43.265625 
L 31.84375 42.921875 
L 30.90625 38.8125 
L 30.515625 38.375 
Q 28.03125 38.421875 25 38.421875 
Q 22.265625 38.421875 17.96875 38.375 
L 17.671875 18.5 
Q 17.671875 11.625 17.984375 9.5 
Q 18.3125 7.375 19.75 6.171875 
Q 21.1875 4.984375 24.03125 4.984375 
Q 27.296875 4.984375 30.078125 6.6875 
L 31.25 4.9375 
Q 30.078125 4.109375 25.640625 0.046875 
Q 23.09375 -1.125 20.453125 -1.125 
Q 9.46875 -1.125 9.46875 9.515625 
Q 9.46875 13.421875 9.671875 16.15625 
Q 9.71875 17 9.71875 17.875 
L 9.71875 38.140625 
L 7.71875 38.140625 
Q 5.515625 38.140625 2.6875 37.9375 
z
" id="PalatinoLinotype-Roman-116"/>
      </defs>
      <g style="fill:#262626;" transform="translate(39.594159 108.25666)scale(0.11 -0.11)">
       <use xlink:href="#PalatinoLinotype-Roman-108"/>
       <use x="29.101562" xlink:href="#PalatinoLinotype-Roman-105"/>
       <use x="58.203125" xlink:href="#PalatinoLinotype-Roman-95"/>
       <use x="108.203125" xlink:href="#PalatinoLinotype-Roman-105"/>
       <use x="137.304688" xlink:href="#PalatinoLinotype-Roman-111"/>
       <use x="191.894531" xlink:href="#PalatinoLinotype-Roman-110"/>
       <use x="250.097656" xlink:href="#PalatinoLinotype-Roman-95"/>
       <use x="300.097656" xlink:href="#PalatinoLinotype-Roman-116"/>
       <use x="332.714844" xlink:href="#PalatinoLinotype-Roman-105"/>
       <use x="361.816406" xlink:href="#PalatinoLinotype-Roman-116"/>
       <use x="394.433594" xlink:href="#PalatinoLinotype-Roman-97"/>
       <use x="444.433594" xlink:href="#PalatinoLinotype-Roman-110"/>
      </g>
     </g>
    </g>
    <g id="ytick_7">
     <g id="line2d_11">
      <path clip-path="url(#p1ec7dba4d0)" d="M 104.389784 66.329235 
L 367.930216 66.329235 
" style="fill:none;stroke:#ffffff;stroke-linecap:round;"/>
     </g>
     <g id="text_11">
      <!-- nanicl -->
      <g style="fill:#262626;" transform="translate(65.298066 70.306422)scale(0.11 -0.11)">
       <use xlink:href="#PalatinoLinotype-Roman-110"/>
       <use x="58.203125" xlink:href="#PalatinoLinotype-Roman-97"/>
       <use x="108.203125" xlink:href="#PalatinoLinotype-Roman-110"/>
       <use x="166.40625" xlink:href="#PalatinoLinotype-Roman-105"/>
       <use x="195.507812" xlink:href="#PalatinoLinotype-Roman-99"/>
       <use x="239.892578" xlink:href="#PalatinoLinotype-Roman-108"/>
      </g>
     </g>
    </g>
   </g>
   <g id="PathCollection_1">
    <path clip-path="url(#p1ec7dba4d0)" d="M 116.368895 294.030662 
C 116.368895 294.030662 116.368895 294.030662 116.368895 294.030662 
C 116.368895 294.030662 116.368895 294.030662 116.368895 294.030662 
C 116.368895 294.030662 116.368895 294.030662 116.368895 294.030662 
C 116.368895 294.030662 116.368895 294.030662 116.368895 294.030662 
C 116.368895 294.030662 116.368895 294.030662 116.368895 294.030662 
C 116.368895 294.030662 116.368895 294.030662 116.368895 294.030662 
C 116.368895 294.030662 116.368895 294.030662 116.368895 294.030662 
C 116.368895 294.030662 116.368895 294.030662 116.368895 294.030662 
z
" style="fill:#a6cee3;fill-opacity:0.7;"/>
   </g>
   <g id="PathCollection_2">
    <path clip-path="url(#p1ec7dba4d0)" d="M 192.269371 294.030662 
C 192.269371 294.030662 192.269371 294.030662 192.269371 294.030662 
C 192.269371 294.030662 192.269371 294.030662 192.269371 294.030662 
C 192.269371 294.030662 192.269371 294.030662 192.269371 294.030662 
C 192.269371 294.030662 192.269371 294.030662 192.269371 294.030662 
C 192.269371 294.030662 192.269371 294.030662 192.269371 294.030662 
C 192.269371 294.030662 192.269371 294.030662 192.269371 294.030662 
C 192.269371 294.030662 192.269371 294.030662 192.269371 294.030662 
C 192.269371 294.030662 192.269371 294.030662 192.269371 294.030662 
z
" style="fill:#a6cee3;fill-opacity:0.7;"/>
   </g>
   <g id="PathCollection_3">
    <path clip-path="url(#p1ec7dba4d0)" d="M 268.169847 294.030662 
C 268.169847 294.030662 268.169847 294.030662 268.169847 294.030662 
C 268.169847 294.030662 268.169847 294.030662 268.169847 294.030662 
C 268.169847 294.030662 268.169847 294.030662 268.169847 294.030662 
C 268.169847 294.030662 268.169847 294.030662 268.169847 294.030662 
C 268.169847 294.030662 268.169847 294.030662 268.169847 294.030662 
C 268.169847 294.030662 268.169847 294.030662 268.169847 294.030662 
C 268.169847 294.030662 268.169847 294.030662 268.169847 294.030662 
C 268.169847 294.030662 268.169847 294.030662 268.169847 294.030662 
z
" style="fill:#a6cee3;fill-opacity:0.7;"/>
   </g>
   <g id="PathCollection_4">
    <path clip-path="url(#p1ec7dba4d0)" d="M 344.070323 314.052203 
C 349.380097 314.052203 354.473112 311.942607 358.22769 308.188029 
C 361.982267 304.433452 364.091863 299.340437 364.091863 294.030662 
C 364.091863 288.720888 361.982267 283.627873 358.22769 279.873296 
C 354.473112 276.118718 349.380097 274.009122 344.070323 274.009122 
C 338.760548 274.009122 333.667534 276.118718 329.912956 279.873296 
C 326.158378 283.627873 324.048783 288.720888 324.048783 294.030662 
C 324.048783 299.340437 326.158378 304.433452 329.912956 308.188029 
C 333.667534 311.942607 338.760548 314.052203 344.070323 314.052203 
z
" style="fill:#a6cee3;fill-opacity:0.7;"/>
   </g>
   <g id="PathCollection_5">
    <path clip-path="url(#p1ec7dba4d0)" d="M 116.368895 256.080424 
C 116.368895 256.080424 116.368895 256.080424 116.368895 256.080424 
C 116.368895 256.080424 116.368895 256.080424 116.368895 256.080424 
C 116.368895 256.080424 116.368895 256.080424 116.368895 256.080424 
C 116.368895 256.080424 116.368895 256.080424 116.368895 256.080424 
C 116.368895 256.080424 116.368895 256.080424 116.368895 256.080424 
C 116.368895 256.080424 116.368895 256.080424 116.368895 256.080424 
C 116.368895 256.080424 116.368895 256.080424 116.368895 256.080424 
C 116.368895 256.080424 116.368895 256.080424 116.368895 256.080424 
z
" style="fill:#b2df8a;fill-opacity:0.7;"/>
   </g>
   <g id="PathCollection_6">
    <path clip-path="url(#p1ec7dba4d0)" d="M 192.269371 256.080424 
C 192.269371 256.080424 192.269371 256.080424 192.269371 256.080424 
C 192.269371 256.080424 192.269371 256.080424 192.269371 256.080424 
C 192.269371 256.080424 192.269371 256.080424 192.269371 256.080424 
C 192.269371 256.080424 192.269371 256.080424 192.269371 256.080424 
C 192.269371 256.080424 192.269371 256.080424 192.269371 256.080424 
C 192.269371 256.080424 192.269371 256.080424 192.269371 256.080424 
C 192.269371 256.080424 192.269371 256.080424 192.269371 256.080424 
C 192.269371 256.080424 192.269371 256.080424 192.269371 256.080424 
z
" style="fill:#b2df8a;fill-opacity:0.7;"/>
   </g>
   <g id="PathCollection_7">
    <path clip-path="url(#p1ec7dba4d0)" d="M 268.169847 256.080424 
C 268.169847 256.080424 268.169847 256.080424 268.169847 256.080424 
C 268.169847 256.080424 268.169847 256.080424 268.169847 256.080424 
C 268.169847 256.080424 268.169847 256.080424 268.169847 256.080424 
C 268.169847 256.080424 268.169847 256.080424 268.169847 256.080424 
C 268.169847 256.080424 268.169847 256.080424 268.169847 256.080424 
C 268.169847 256.080424 268.169847 256.080424 268.169847 256.080424 
C 268.169847 256.080424 268.169847 256.080424 268.169847 256.080424 
C 268.169847 256.080424 268.169847 256.080424 268.169847 256.080424 
z
" style="fill:#b2df8a;fill-opacity:0.7;"/>
   </g>
   <g id="PathCollection_8">
    <path clip-path="url(#p1ec7dba4d0)" d="M 344.070323 276.101965 
C 349.380097 276.101965 354.473112 273.992369 358.22769 270.237791 
C 361.982267 266.483214 364.091863 261.390199 364.091863 256.080424 
C 364.091863 250.77065 361.982267 245.677635 358.22769 241.923058 
C 354.473112 238.16848 349.380097 236.058884 344.070323 236.058884 
C 338.760548 236.058884 333.667534 238.16848 329.912956 241.923058 
C 326.158378 245.677635 324.048783 250.77065 324.048783 256.080424 
C 324.048783 261.390199 326.158378 266.483214 329.912956 270.237791 
C 333.667534 273.992369 338.760548 276.101965 344.070323 276.101965 
z
" style="fill:#b2df8a;fill-opacity:0.7;"/>
   </g>
   <g id="PathCollection_9">
    <path clip-path="url(#p1ec7dba4d0)" d="M 116.368895 218.130187 
C 116.368895 218.130187 116.368895 218.130187 116.368895 218.130187 
C 116.368895 218.130187 116.368895 218.130187 116.368895 218.130187 
C 116.368895 218.130187 116.368895 218.130187 116.368895 218.130187 
C 116.368895 218.130187 116.368895 218.130187 116.368895 218.130187 
C 116.368895 218.130187 116.368895 218.130187 116.368895 218.130187 
C 116.368895 218.130187 116.368895 218.130187 116.368895 218.130187 
C 116.368895 218.130187 116.368895 218.130187 116.368895 218.130187 
C 116.368895 218.130187 116.368895 218.130187 116.368895 218.130187 
z
" style="fill:#fb9a99;fill-opacity:0.7;"/>
   </g>
   <g id="PathCollection_10">
    <path clip-path="url(#p1ec7dba4d0)" d="M 192.269371 218.130187 
C 192.269371 218.130187 192.269371 218.130187 192.269371 218.130187 
C 192.269371 218.130187 192.269371 218.130187 192.269371 218.130187 
C 192.269371 218.130187 192.269371 218.130187 192.269371 218.130187 
C 192.269371 218.130187 192.269371 218.130187 192.269371 218.130187 
C 192.269371 218.130187 192.269371 218.130187 192.269371 218.130187 
C 192.269371 218.130187 192.269371 218.130187 192.269371 218.130187 
C 192.269371 218.130187 192.269371 218.130187 192.269371 218.130187 
C 192.269371 218.130187 192.269371 218.130187 192.269371 218.130187 
z
" style="fill:#fb9a99;fill-opacity:0.7;"/>
   </g>
   <g id="PathCollection_11">
    <path clip-path="url(#p1ec7dba4d0)" d="M 268.169847 237.271224 
C 273.246109 237.271224 278.115145 235.254403 281.704604 231.664944 
C 285.294064 228.075484 287.310884 223.206449 287.310884 218.130187 
C 287.310884 213.053924 285.294064 208.184889 281.704604 204.595429 
C 278.115145 201.00597 273.246109 198.989149 268.169847 198.989149 
C 263.093584 198.989149 258.224549 201.00597 254.63509 204.595429 
C 251.04563 208.184889 249.02881 213.053924 249.02881 218.130187 
C 249.02881 223.206449 251.04563 228.075484 254.63509 231.664944 
C 258.224549 235.254403 263.093584 237.271224 268.169847 237.271224 
z
" style="fill:#fb9a99;fill-opacity:0.7;"/>
   </g>
   <g id="PathCollection_12">
    <path clip-path="url(#p1ec7dba4d0)" d="M 344.070323 238.151727 
C 349.380097 238.151727 354.473112 236.042131 358.22769 232.287553 
C 361.982267 228.532976 364.091863 223.439961 364.091863 218.130187 
C 364.091863 212.820412 361.982267 207.727397 358.22769 203.97282 
C 354.473112 200.218242 349.380097 198.108646 344.070323 198.108646 
C 338.760548 198.108646 333.667534 200.218242 329.912956 203.97282 
C 326.158378 207.727397 324.048783 212.820412 324.048783 218.130187 
C 324.048783 223.439961 326.158378 228.532976 329.912956 232.287553 
C 333.667534 236.042131 338.760548 238.151727 344.070323 238.151727 
z
" style="fill:#fb9a99;fill-opacity:0.7;"/>
   </g>
   <g id="PathCollection_13">
    <path clip-path="url(#p1ec7dba4d0)" d="M 116.368895 180.179949 
C 116.368895 180.179949 116.368895 180.179949 116.368895 180.179949 
C 116.368895 180.179949 116.368895 180.179949 116.368895 180.179949 
C 116.368895 180.179949 116.368895 180.179949 116.368895 180.179949 
C 116.368895 180.179949 116.368895 180.179949 116.368895 180.179949 
C 116.368895 180.179949 116.368895 180.179949 116.368895 180.179949 
C 116.368895 180.179949 116.368895 180.179949 116.368895 180.179949 
C 116.368895 180.179949 116.368895 180.179949 116.368895 180.179949 
C 116.368895 180.179949 116.368895 180.179949 116.368895 180.179949 
z
" style="fill:#fdbf6f;fill-opacity:0.7;"/>
   </g>
   <g id="PathCollection_14">
    <path clip-path="url(#p1ec7dba4d0)" d="M 192.269371 180.179949 
C 192.269371 180.179949 192.269371 180.179949 192.269371 180.179949 
C 192.269371 180.179949 192.269371 180.179949 192.269371 180.179949 
C 192.269371 180.179949 192.269371 180.179949 192.269371 180.179949 
C 192.269371 180.179949 192.269371 180.179949 192.269371 180.179949 
C 192.269371 180.179949 192.269371 180.179949 192.269371 180.179949 
C 192.269371 180.179949 192.269371 180.179949 192.269371 180.179949 
C 192.269371 180.179949 192.269371 180.179949 192.269371 180.179949 
C 192.269371 180.179949 192.269371 180.179949 192.269371 180.179949 
z
" style="fill:#fdbf6f;fill-opacity:0.7;"/>
   </g>
   <g id="PathCollection_15">
    <path clip-path="url(#p1ec7dba4d0)" d="M 268.169847 180.179949 
C 268.169847 180.179949 268.169847 180.179949 268.169847 180.179949 
C 268.169847 180.179949 268.169847 180.179949 268.169847 180.179949 
C 268.169847 180.179949 268.169847 180.179949 268.169847 180.179949 
C 268.169847 180.179949 268.169847 180.179949 268.169847 180.179949 
C 268.169847 180.179949 268.169847 180.179949 268.169847 180.179949 
C 268.169847 180.179949 268.169847 180.179949 268.169847 180.179949 
C 268.169847 180.179949 268.169847 180.179949 268.169847 180.179949 
C 268.169847 180.179949 268.169847 180.179949 268.169847 180.179949 
z
" style="fill:#fdbf6f;fill-opacity:0.7;"/>
   </g>
   <g id="PathCollection_16">
    <path clip-path="url(#p1ec7dba4d0)" d="M 344.070323 202.540628 
C 350.000444 202.540628 355.688482 200.184566 359.881711 195.991337 
C 364.07494 191.798108 366.431003 186.11007 366.431003 180.179949 
C 366.431003 174.249827 364.07494 168.561789 359.881711 164.36856 
C 355.688482 160.175331 350.000444 157.819269 344.070323 157.819269 
C 338.140201 157.819269 332.452164 160.175331 328.258934 164.36856 
C 324.065705 168.561789 321.709643 174.249827 321.709643 180.179949 
C 321.709643 186.11007 324.065705 191.798108 328.258934 195.991337 
C 332.452164 200.184566 338.140201 202.540628 344.070323 202.540628 
z
" style="fill:#fdbf6f;fill-opacity:0.7;"/>
   </g>
   <g id="PathCollection_17">
    <path clip-path="url(#p1ec7dba4d0)" d="M 116.368895 142.229711 
C 116.368895 142.229711 116.368895 142.229711 116.368895 142.229711 
C 116.368895 142.229711 116.368895 142.229711 116.368895 142.229711 
C 116.368895 142.229711 116.368895 142.229711 116.368895 142.229711 
C 116.368895 142.229711 116.368895 142.229711 116.368895 142.229711 
C 116.368895 142.229711 116.368895 142.229711 116.368895 142.229711 
C 116.368895 142.229711 116.368895 142.229711 116.368895 142.229711 
C 116.368895 142.229711 116.368895 142.229711 116.368895 142.229711 
C 116.368895 142.229711 116.368895 142.229711 116.368895 142.229711 
z
" style="fill:#cab2d6;fill-opacity:0.7;"/>
   </g>
   <g id="PathCollection_18">
    <path clip-path="url(#p1ec7dba4d0)" d="M 192.269371 142.229711 
C 192.269371 142.229711 192.269371 142.229711 192.269371 142.229711 
C 192.269371 142.229711 192.269371 142.229711 192.269371 142.229711 
C 192.269371 142.229711 192.269371 142.229711 192.269371 142.229711 
C 192.269371 142.229711 192.269371 142.229711 192.269371 142.229711 
C 192.269371 142.229711 192.269371 142.229711 192.269371 142.229711 
C 192.269371 142.229711 192.269371 142.229711 192.269371 142.229711 
C 192.269371 142.229711 192.269371 142.229711 192.269371 142.229711 
C 192.269371 142.229711 192.269371 142.229711 192.269371 142.229711 
z
" style="fill:#cab2d6;fill-opacity:0.7;"/>
   </g>
   <g id="PathCollection_19">
    <path clip-path="url(#p1ec7dba4d0)" d="M 268.169847 164.59039 
C 274.099968 164.59039 279.788006 162.234328 283.981235 158.041099 
C 288.174464 153.84787 290.530527 148.159832 290.530527 142.229711 
C 290.530527 136.299589 288.174464 130.611551 283.981235 126.418322 
C 279.788006 122.225093 274.099968 119.869031 268.169847 119.869031 
C 262.239725 119.869031 256.551688 122.225093 252.358459 126.418322 
C 248.165229 130.611551 245.809167 136.299589 245.809167 142.229711 
C 245.809167 148.159832 248.165229 153.84787 252.358459 158.041099 
C 256.551688 162.234328 262.239725 164.59039 268.169847 164.59039 
z
" style="fill:#cab2d6;fill-opacity:0.7;"/>
   </g>
   <g id="PathCollection_20">
    <path clip-path="url(#p1ec7dba4d0)" d="M 344.070323 164.59039 
C 350.000444 164.59039 355.688482 162.234328 359.881711 158.041099 
C 364.07494 153.84787 366.431003 148.159832 366.431003 142.229711 
C 366.431003 136.299589 364.07494 130.611551 359.881711 126.418322 
C 355.688482 122.225093 350.000444 119.869031 344.070323 119.869031 
C 338.140201 119.869031 332.452164 122.225093 328.258934 126.418322 
C 324.065705 130.611551 321.709643 136.299589 321.709643 142.229711 
C 321.709643 148.159832 324.065705 153.84787 328.258934 158.041099 
C 332.452164 162.234328 338.140201 164.59039 344.070323 164.59039 
z
" style="fill:#cab2d6;fill-opacity:0.7;"/>
   </g>
   <g id="PathCollection_21">
    <path clip-path="url(#p1ec7dba4d0)" d="M 116.368895 104.279473 
C 116.368895 104.279473 116.368895 104.279473 116.368895 104.279473 
C 116.368895 104.279473 116.368895 104.279473 116.368895 104.279473 
C 116.368895 104.279473 116.368895 104.279473 116.368895 104.279473 
C 116.368895 104.279473 116.368895 104.279473 116.368895 104.279473 
C 116.368895 104.279473 116.368895 104.279473 116.368895 104.279473 
C 116.368895 104.279473 116.368895 104.279473 116.368895 104.279473 
C 116.368895 104.279473 116.368895 104.279473 116.368895 104.279473 
C 116.368895 104.279473 116.368895 104.279473 116.368895 104.279473 
z
" style="fill:#ffff99;fill-opacity:0.7;"/>
   </g>
   <g id="PathCollection_22">
    <path clip-path="url(#p1ec7dba4d0)" d="M 192.269371 104.279473 
C 192.269371 104.279473 192.269371 104.279473 192.269371 104.279473 
C 192.269371 104.279473 192.269371 104.279473 192.269371 104.279473 
C 192.269371 104.279473 192.269371 104.279473 192.269371 104.279473 
C 192.269371 104.279473 192.269371 104.279473 192.269371 104.279473 
C 192.269371 104.279473 192.269371 104.279473 192.269371 104.279473 
C 192.269371 104.279473 192.269371 104.279473 192.269371 104.279473 
C 192.269371 104.279473 192.269371 104.279473 192.269371 104.279473 
C 192.269371 104.279473 192.269371 104.279473 192.269371 104.279473 
z
" style="fill:#ffff99;fill-opacity:0.7;"/>
   </g>
   <g id="PathCollection_23">
    <path clip-path="url(#p1ec7dba4d0)" d="M 268.169847 104.279473 
C 268.169847 104.279473 268.169847 104.279473 268.169847 104.279473 
C 268.169847 104.279473 268.169847 104.279473 268.169847 104.279473 
C 268.169847 104.279473 268.169847 104.279473 268.169847 104.279473 
C 268.169847 104.279473 268.169847 104.279473 268.169847 104.279473 
C 268.169847 104.279473 268.169847 104.279473 268.169847 104.279473 
C 268.169847 104.279473 268.169847 104.279473 268.169847 104.279473 
C 268.169847 104.279473 268.169847 104.279473 268.169847 104.279473 
C 268.169847 104.279473 268.169847 104.279473 268.169847 104.279473 
z
" style="fill:#ffff99;fill-opacity:0.7;"/>
   </g>
   <g id="PathCollection_24">
    <path clip-path="url(#p1ec7dba4d0)" d="M 344.070323 126.640152 
C 350.000444 126.640152 355.688482 124.28409 359.881711 120.090861 
C 364.07494 115.897632 366.431003 110.209594 366.431003 104.279473 
C 366.431003 98.349351 364.07494 92.661313 359.881711 88.468084 
C 355.688482 84.274855 350.000444 81.918793 344.070323 81.918793 
C 338.140201 81.918793 332.452164 84.274855 328.258934 88.468084 
C 324.065705 92.661313 321.709643 98.349351 321.709643 104.279473 
C 321.709643 110.209594 324.065705 115.897632 328.258934 120.090861 
C 332.452164 124.28409 338.140201 126.640152 344.070323 126.640152 
z
" style="fill:#ffff99;fill-opacity:0.7;"/>
   </g>
   <g id="PathCollection_25">
    <path clip-path="url(#p1ec7dba4d0)" d="M 116.368895 66.329235 
C 116.368895 66.329235 116.368895 66.329235 116.368895 66.329235 
C 116.368895 66.329235 116.368895 66.329235 116.368895 66.329235 
C 116.368895 66.329235 116.368895 66.329235 116.368895 66.329235 
C 116.368895 66.329235 116.368895 66.329235 116.368895 66.329235 
C 116.368895 66.329235 116.368895 66.329235 116.368895 66.329235 
C 116.368895 66.329235 116.368895 66.329235 116.368895 66.329235 
C 116.368895 66.329235 116.368895 66.329235 116.368895 66.329235 
C 116.368895 66.329235 116.368895 66.329235 116.368895 66.329235 
z
" style="fill:#b15928;fill-opacity:0.7;"/>
   </g>
   <g id="PathCollection_26">
    <path clip-path="url(#p1ec7dba4d0)" d="M 192.269371 66.329235 
C 192.269371 66.329235 192.269371 66.329235 192.269371 66.329235 
C 192.269371 66.329235 192.269371 66.329235 192.269371 66.329235 
C 192.269371 66.329235 192.269371 66.329235 192.269371 66.329235 
C 192.269371 66.329235 192.269371 66.329235 192.269371 66.329235 
C 192.269371 66.329235 192.269371 66.329235 192.269371 66.329235 
C 192.269371 66.329235 192.269371 66.329235 192.269371 66.329235 
C 192.269371 66.329235 192.269371 66.329235 192.269371 66.329235 
C 192.269371 66.329235 192.269371 66.329235 192.269371 66.329235 
z
" style="fill:#b15928;fill-opacity:0.7;"/>
   </g>
   <g id="PathCollection_27">
    <path clip-path="url(#p1ec7dba4d0)" d="M 268.169847 66.329235 
C 268.169847 66.329235 268.169847 66.329235 268.169847 66.329235 
C 268.169847 66.329235 268.169847 66.329235 268.169847 66.329235 
C 268.169847 66.329235 268.169847 66.329235 268.169847 66.329235 
C 268.169847 66.329235 268.169847 66.329235 268.169847 66.329235 
C 268.169847 66.329235 268.169847 66.329235 268.169847 66.329235 
C 268.169847 66.329235 268.169847 66.329235 268.169847 66.329235 
C 268.169847 66.329235 268.169847 66.329235 268.169847 66.329235 
C 268.169847 66.329235 268.169847 66.329235 268.169847 66.329235 
z
" style="fill:#b15928;fill-opacity:0.7;"/>
   </g>
   <g id="PathCollection_28">
    <path clip-path="url(#p1ec7dba4d0)" d="M 344.070323 85.470272 
C 349.146585 85.470272 354.01562 83.453452 357.60508 79.863992 
C 361.19454 76.274532 363.21136 71.405497 363.21136 66.329235 
C 363.21136 61.252972 361.19454 56.383937 357.60508 52.794477 
C 354.01562 49.205018 349.146585 47.188197 344.070323 47.188197 
C 338.99406 47.188197 334.125025 49.205018 330.535565 52.794477 
C 326.946106 56.383937 324.929285 61.252972 324.929285 66.329235 
C 324.929285 71.405497 326.946106 76.274532 330.535565 79.863992 
C 334.125025 83.453452 338.99406 85.470272 344.070323 85.470272 
z
" style="fill:#b15928;fill-opacity:0.7;"/>
   </g>
   <g id="patch_3">
    <path d="M 104.389784 306.3024 
L 104.389784 41.2992 
" style="fill:none;stroke:#ffffff;stroke-linecap:square;stroke-linejoin:miter;stroke-width:1.25;"/>
   </g>
   <g id="patch_4">
    <path d="M 367.930216 306.3024 
L 367.930216 41.2992 
" style="fill:none;stroke:#ffffff;stroke-linecap:square;stroke-linejoin:miter;stroke-width:1.25;"/>
   </g>
   <g id="patch_5">
    <path d="M 104.389784 306.3024 
L 367.930216 306.3024 
" style="fill:none;stroke:#ffffff;stroke-linecap:square;stroke-linejoin:miter;stroke-width:1.25;"/>
   </g>
   <g id="patch_6">
    <path d="M 104.389784 41.2992 
L 367.930216 41.2992 
" style="fill:none;stroke:#ffffff;stroke-linecap:square;stroke-linejoin:miter;stroke-width:1.25;"/>
   </g>
   <g id="text_12">
    <g id="patch_7">
     <path d="M 331.203838 299.489725 
L 356.936807 299.489725 
L 356.936807 288.5716 
L 331.203838 288.5716 
z
" style="fill:none;opacity:0.5;"/>
    </g>
    <!-- 9.30% -->
    <defs>
     <path d="M 46.140625 38.921875 
Q 46.140625 25.984375 41.5 17.484375 
Q 36.625 8.546875 28.5625 3.265625 
Q 20.265625 -2.15625 10.359375 -2.15625 
L 6.5 1.03125 
L 7.671875 2.9375 
Q 9.125 2.390625 11.28125 2.390625 
Q 18.890625 2.390625 24.609375 8.0625 
Q 26.90625 10.296875 28.859375 14.109375 
Q 31.984375 20.125 33.15625 31.640625 
Q 25.875 24.953125 25.046875 24.859375 
Q 21.828125 23.6875 18.109375 23.6875 
Q 11.625 23.6875 7.515625 28.46875 
Q 3.125 33.59375 3.125 42.484375 
Q 3.125 56.734375 13.140625 63.578125 
Q 17.875 66.796875 24.8125 66.796875 
Q 37.890625 66.796875 43.40625 54.640625 
Q 46.140625 48.640625 46.140625 38.921875 
z
M 33.40625 43.953125 
Q 33.40625 52.984375 30.765625 57.328125 
Q 28.125 61.671875 23.578125 61.671875 
Q 17.96875 61.671875 15.96875 55.5625 
Q 14.890625 52.296875 14.890625 47.859375 
Q 14.890625 40.28125 17.671875 36.234375 
Q 20.3125 32.421875 24.8125 32.421875 
Q 30.5625 32.421875 32.515625 37.546875 
Q 33.40625 39.890625 33.40625 43.953125 
z
" id="PalatinoLinotype-Bold-57"/>
     <path d="M 12.5 13.96875 
Q 15.625 13.96875 17.875 11.734375 
Q 20.125 9.515625 20.125 6.203125 
Q 20.125 2.984375 17.875 0.734375 
Q 15.625 -1.515625 12.5 -1.515625 
Q 9.375 -1.515625 7.09375 0.75 
Q 4.828125 3.03125 4.828125 6.203125 
Q 4.828125 9.421875 7.078125 11.6875 
Q 9.328125 13.96875 12.5 13.96875 
z
" id="PalatinoLinotype-Bold-46"/>
     <path d="M 45.75 22.65625 
Q 45.75 12.25 37.078125 5.046875 
Q 28.421875 -2.15625 16.75 -2.15625 
Q 10.546875 -2.15625 4.828125 0.53125 
Q 3.953125 9.03125 2.484375 14.890625 
L 2.78125 15.578125 
L 5.21875 16.3125 
L 5.8125 16.0625 
Q 10.640625 3.71875 21.296875 3.71875 
Q 26.8125 3.71875 30.15625 7.296875 
Q 33.5 10.890625 33.5 17.140625 
Q 33.5 23.34375 29.828125 26.703125 
Q 26.375 29.9375 20.515625 29.9375 
Q 17.828125 29.9375 14.703125 29.046875 
L 14.109375 29.6875 
Q 15.1875 33.15625 15.96875 37.109375 
L 19.96875 37.109375 
Q 24.3125 37.109375 27.484375 40.203125 
Q 30.671875 43.3125 30.671875 47.609375 
Q 30.671875 51.65625 27.859375 54.1875 
Q 25.046875 56.734375 20.84375 56.734375 
Q 14.203125 56.734375 11.8125 53.328125 
Q 10.6875 51.703125 9.671875 48.6875 
L 9.125 47.078125 
L 8.453125 46.625 
L 5.953125 46.828125 
L 5.46875 47.46875 
L 7.171875 55.421875 
Q 7.90625 58.796875 8.25 62.015625 
Q 14.59375 66.796875 24.21875 66.796875 
Q 32.375 66.796875 37.203125 62.796875 
Q 41.796875 58.890625 41.796875 52.59375 
Q 41.796875 43.5 30.953125 37.84375 
Q 36.421875 37.84375 40.875 34.125 
Q 45.75 30.078125 45.75 22.65625 
z
" id="PalatinoLinotype-Bold-51"/>
     <path d="M 46.828125 35.359375 
Q 46.828125 16.21875 42.046875 7.953125 
Q 36.1875 -2.15625 24.3125 -2.15625 
Q 12.84375 -2.15625 7.5625 6.734375 
Q 3.21875 14.0625 3.21875 31.0625 
Q 3.21875 44.4375 5.859375 52.046875 
Q 8.25 59.078125 13.578125 62.984375 
Q 18.65625 66.703125 25.6875 66.703125 
Q 36.671875 66.703125 41.5 60.0625 
Q 46.828125 52.78125 46.828125 35.359375 
z
M 34.765625 27.34375 
Q 34.765625 46.4375 32.03125 54.734375 
Q 29.828125 61.375 24.46875 61.375 
Q 19.484375 61.375 17.390625 56.296875 
Q 15.140625 50.921875 15.140625 37.9375 
Q 15.140625 21.625 17.09375 13.03125 
Q 18.015625 8.9375 19.046875 7.125 
Q 21.4375 2.9375 25.59375 2.9375 
Q 32.625 2.9375 34.03125 13.765625 
Q 34.765625 19.4375 34.765625 27.34375 
z
" id="PalatinoLinotype-Bold-48"/>
     <path d="M 85.0625 16.453125 
Q 85.0625 8.546875 80.296875 3.5625 
Q 75.53125 -1.421875 67.671875 -1.421875 
Q 60.109375 -1.421875 55.34375 3.359375 
Q 50.59375 8.15625 50.59375 15.71875 
Q 50.59375 23.53125 55.390625 28.46875 
Q 60.203125 33.40625 67.96875 33.40625 
Q 74.8125 33.40625 79.78125 29.25 
Q 85.0625 24.859375 85.0625 16.453125 
z
M 64.15625 72.359375 
L 27.59375 -3.71875 
L 24.265625 -3.71875 
L 23.96875 -2.984375 
L 60.5 73.046875 
L 63.8125 73.046875 
z
M 38.421875 53.90625 
Q 38.421875 46 33.640625 40.984375 
Q 28.859375 35.984375 21 35.984375 
Q 10.6875 35.984375 5.953125 44.53125 
Q 3.90625 48.25 3.90625 53.125 
Q 3.90625 60.9375 8.71875 65.859375 
Q 13.53125 70.796875 21.296875 70.796875 
Q 28.90625 70.796875 33.65625 66.15625 
Q 38.421875 61.53125 38.421875 53.90625 
z
M 74.75 16.546875 
Q 74.75 30.03125 67.921875 30.03125 
Q 60.9375 30.03125 60.9375 15.71875 
Q 60.9375 1.90625 67.578125 1.90625 
Q 72.65625 1.90625 74.125 8.59375 
Q 74.75 11.46875 74.75 16.546875 
z
M 28.078125 53.953125 
Q 28.078125 67.484375 21.234375 67.484375 
Q 14.265625 67.484375 14.265625 53.171875 
Q 14.265625 39.359375 20.90625 39.359375 
Q 25.734375 39.359375 27.34375 45.515625 
Q 28.078125 48.34375 28.078125 53.953125 
z
" id="PalatinoLinotype-Bold-37"/>
    </defs>
    <g style="fill:#262626;" transform="translate(332.193838 296.1091)scale(0.09 -0.09)">
     <use xlink:href="#PalatinoLinotype-Bold-57"/>
     <use x="50" xlink:href="#PalatinoLinotype-Bold-46"/>
     <use x="75" xlink:href="#PalatinoLinotype-Bold-51"/>
     <use x="125" xlink:href="#PalatinoLinotype-Bold-48"/>
     <use x="175" xlink:href="#PalatinoLinotype-Bold-37"/>
    </g>
   </g>
   <g id="text_13">
    <g id="patch_8">
     <path d="M 331.203838 261.539487 
L 356.936807 261.539487 
L 356.936807 250.621362 
L 331.203838 250.621362 
z
" style="fill:none;opacity:0.5;"/>
    </g>
    <!-- 9.30% -->
    <g style="fill:#262626;" transform="translate(332.193838 258.158862)scale(0.09 -0.09)">
     <use xlink:href="#PalatinoLinotype-Bold-57"/>
     <use x="50" xlink:href="#PalatinoLinotype-Bold-46"/>
     <use x="75" xlink:href="#PalatinoLinotype-Bold-51"/>
     <use x="125" xlink:href="#PalatinoLinotype-Bold-48"/>
     <use x="175" xlink:href="#PalatinoLinotype-Bold-37"/>
    </g>
   </g>
   <g id="text_14">
    <g id="patch_9">
     <path d="M 255.303362 223.589249 
L 281.036331 223.589249 
L 281.036331 212.671124 
L 255.303362 212.671124 
z
" style="fill:none;opacity:0.5;"/>
    </g>
    <!-- 8.50% -->
    <defs>
     <path d="M 46.578125 20.703125 
Q 46.578125 14.984375 44.53125 10.59375 
Q 40.625 2.25 31.84375 -0.828125 
Q 28.21875 -2.09375 23.046875 -2.09375 
Q 12.015625 -2.09375 6.109375 6.203125 
Q 3.46875 9.90625 3.46875 15.96875 
Q 3.46875 23.34375 8.203125 27.984375 
Q 9.765625 29.5 15.09375 32.375 
Q 5.28125 37.890625 5.28125 47.953125 
Q 5.28125 59.328125 15.625 64.59375 
Q 20.125 66.890625 25.828125 66.890625 
Q 34.234375 66.890625 39.0625 62.703125 
Q 43.65625 58.6875 43.65625 52.25 
Q 43.65625 43.5 34.328125 37.984375 
Q 41.15625 35.109375 44 30.859375 
Q 46.578125 27 46.578125 20.703125 
z
M 35.359375 50.875 
Q 35.359375 55.671875 32.5 58.5625 
Q 29.640625 61.46875 24.75 61.46875 
Q 20.359375 61.46875 17.78125 58.734375 
Q 15.375 56.203125 15.375 52.4375 
Q 15.375 48.734375 18.5 45.703125 
Q 20.171875 44.09375 23.390625 42.53125 
Q 24.515625 41.9375 26.8125 40.875 
L 29.4375 39.75 
Q 35.359375 43.5625 35.359375 50.875 
z
M 35.6875 15.09375 
Q 35.6875 22.125 29.390625 25.6875 
Q 25.296875 28.03125 20.609375 29.9375 
L 19.28125 30.46875 
Q 12.359375 25.140625 12.359375 17.140625 
Q 12.359375 12.5 14.0625 9.625 
Q 17.875 3.171875 24.8125 3.171875 
Q 29.640625 3.171875 32.65625 6.515625 
Q 35.6875 9.859375 35.6875 15.09375 
z
" id="PalatinoLinotype-Bold-56"/>
     <path d="M 45.3125 23.578125 
Q 45.3125 13.03125 37.15625 5.5625 
Q 28.8125 -2.15625 16.65625 -2.15625 
Q 11.421875 -2.15625 5.421875 0.140625 
Q 5.125 2.9375 2.296875 13.8125 
L 2.59375 14.5 
L 4.9375 15.328125 
L 5.609375 15.046875 
Q 10.5 3.765625 21.296875 3.765625 
Q 28.953125 3.765625 32.078125 10.453125 
Q 33.5 13.484375 33.5 17.484375 
Q 33.5 24.03125 29.984375 27.8125 
Q 26.46875 31.59375 20.265625 31.59375 
Q 14.703125 31.59375 9.078125 27.484375 
L 7.171875 28.5625 
Q 7.8125 37.984375 7.8125 43.953125 
L 7.8125 50.6875 
Q 7.8125 57.90625 7.078125 65.875 
L 7.71875 66.359375 
Q 19.53125 65.828125 27.59375 65.828125 
Q 32.8125 65.828125 42.4375 66.359375 
L 42.875 65.578125 
Q 42.28125 60.75 42.28125 58.59375 
Q 42.28125 57.375 42.4375 55.21875 
L 41.9375 54.59375 
Q 35.9375 54.890625 27.546875 54.890625 
Q 17.4375 54.890625 13.09375 54.5 
L 12.703125 38.53125 
Q 19.828125 41.890625 25.921875 41.890625 
Q 34.859375 41.890625 40.078125 36.90625 
Q 45.3125 31.9375 45.3125 23.578125 
z
" id="PalatinoLinotype-Bold-53"/>
    </defs>
    <g style="fill:#262626;" transform="translate(256.293362 220.208624)scale(0.09 -0.09)">
     <use xlink:href="#PalatinoLinotype-Bold-56"/>
     <use x="50" xlink:href="#PalatinoLinotype-Bold-46"/>
     <use x="75" xlink:href="#PalatinoLinotype-Bold-53"/>
     <use x="125" xlink:href="#PalatinoLinotype-Bold-48"/>
     <use x="175" xlink:href="#PalatinoLinotype-Bold-37"/>
    </g>
   </g>
   <g id="text_15">
    <g id="patch_10">
     <path d="M 331.203838 223.589249 
L 356.936807 223.589249 
L 356.936807 212.671124 
L 331.203838 212.671124 
z
" style="fill:none;opacity:0.5;"/>
    </g>
    <!-- 9.30% -->
    <g style="fill:#262626;" transform="translate(332.193838 220.208624)scale(0.09 -0.09)">
     <use xlink:href="#PalatinoLinotype-Bold-57"/>
     <use x="50" xlink:href="#PalatinoLinotype-Bold-46"/>
     <use x="75" xlink:href="#PalatinoLinotype-Bold-51"/>
     <use x="125" xlink:href="#PalatinoLinotype-Bold-48"/>
     <use x="175" xlink:href="#PalatinoLinotype-Bold-37"/>
    </g>
   </g>
   <g id="text_16">
    <g id="patch_11">
     <path d="M 328.953838 185.639011 
L 359.186807 185.639011 
L 359.186807 174.720886 
L 328.953838 174.720886 
z
" style="fill:none;opacity:0.5;"/>
    </g>
    <!-- 11.60% -->
    <defs>
     <path d="M 45.609375 0.140625 
L 45.0625 -0.4375 
Q 38.234375 0 28.375 0 
Q 18.75 0 8.109375 -0.4375 
L 7.5625 0.09375 
L 7.5625 3.078125 
L 8.15625 3.5625 
Q 10.640625 3.859375 12.984375 4.046875 
Q 17.1875 4.390625 18.359375 4.890625 
Q 19.1875 5.28125 19.78125 6.6875 
Q 20.703125 8.984375 20.703125 25.25 
L 20.703125 37.40625 
Q 20.703125 42.875 20.515625 51.265625 
L 20.40625 54.9375 
Q 20.40625 57.375 19.390625 57.375 
Q 18.953125 57.375 16.5 56.25 
Q 9.8125 53.171875 5.03125 50.828125 
L 4.4375 51.171875 
Q 4.15625 53.953125 3.421875 57.375 
L 3.46875 57.765625 
Q 16.9375 61.578125 33.59375 67.96875 
L 34.625 67.234375 
Q 34.421875 64.359375 34.078125 58.6875 
Q 33.9375 56.546875 33.796875 47.171875 
L 33.640625 27.984375 
Q 33.640625 7.375 34.328125 5.859375 
Q 34.8125 4.734375 35.796875 4.5 
Q 37.546875 4 44.96875 3.609375 
L 45.609375 3.125 
z
" id="PalatinoLinotype-Bold-49"/>
     <path d="M 46.875 22.171875 
Q 46.875 8.109375 36.921875 1.125 
Q 32.234375 -2.15625 25.203125 -2.15625 
Q 15.234375 -2.15625 9.625 5.078125 
Q 3.859375 12.40625 3.859375 25.734375 
Q 3.859375 38.625 8.5 47.125 
Q 13.421875 56.109375 21.390625 61.375 
Q 29.59375 66.796875 39.703125 66.796875 
L 43.5625 63.625 
L 42.046875 61.96875 
Q 40.28125 62.25 38.71875 62.25 
Q 31.203125 62.25 25.53125 56.734375 
Q 23 54.25 21.09375 50.4375 
Q 17.96875 44.09375 16.890625 33.015625 
Q 23.4375 39.109375 24.75 39.65625 
Q 27.875 40.96875 32.03125 40.96875 
Q 38.328125 40.96875 42.4375 36.28125 
Q 46.875 31.203125 46.875 22.171875 
z
M 35.109375 16.796875 
Q 35.109375 24.359375 32.28125 28.421875 
Q 29.6875 32.234375 25.203125 32.234375 
Q 19.390625 32.234375 17.484375 27.203125 
Q 16.609375 24.859375 16.609375 20.703125 
Q 16.609375 9.96875 20.65625 5.515625 
Q 22.953125 2.984375 26.421875 2.984375 
Q 35.109375 2.984375 35.109375 16.796875 
z
" id="PalatinoLinotype-Bold-54"/>
    </defs>
    <g style="fill:#262626;" transform="translate(329.943838 182.258386)scale(0.09 -0.09)">
     <use xlink:href="#PalatinoLinotype-Bold-49"/>
     <use x="50" xlink:href="#PalatinoLinotype-Bold-49"/>
     <use x="100" xlink:href="#PalatinoLinotype-Bold-46"/>
     <use x="125" xlink:href="#PalatinoLinotype-Bold-54"/>
     <use x="175" xlink:href="#PalatinoLinotype-Bold-48"/>
     <use x="225" xlink:href="#PalatinoLinotype-Bold-37"/>
    </g>
   </g>
   <g id="text_17">
    <g id="patch_12">
     <path d="M 253.053362 147.688773 
L 283.286331 147.688773 
L 283.286331 136.770648 
L 253.053362 136.770648 
z
" style="fill:none;opacity:0.5;"/>
    </g>
    <!-- 11.60% -->
    <g style="fill:#262626;" transform="translate(254.043362 144.308148)scale(0.09 -0.09)">
     <use xlink:href="#PalatinoLinotype-Bold-49"/>
     <use x="50" xlink:href="#PalatinoLinotype-Bold-49"/>
     <use x="100" xlink:href="#PalatinoLinotype-Bold-46"/>
     <use x="125" xlink:href="#PalatinoLinotype-Bold-54"/>
     <use x="175" xlink:href="#PalatinoLinotype-Bold-48"/>
     <use x="225" xlink:href="#PalatinoLinotype-Bold-37"/>
    </g>
   </g>
   <g id="text_18">
    <g id="patch_13">
     <path d="M 328.953838 147.688773 
L 359.186807 147.688773 
L 359.186807 136.770648 
L 328.953838 136.770648 
z
" style="fill:none;opacity:0.5;"/>
    </g>
    <!-- 11.60% -->
    <g style="fill:#262626;" transform="translate(329.943838 144.308148)scale(0.09 -0.09)">
     <use xlink:href="#PalatinoLinotype-Bold-49"/>
     <use x="50" xlink:href="#PalatinoLinotype-Bold-49"/>
     <use x="100" xlink:href="#PalatinoLinotype-Bold-46"/>
     <use x="125" xlink:href="#PalatinoLinotype-Bold-54"/>
     <use x="175" xlink:href="#PalatinoLinotype-Bold-48"/>
     <use x="225" xlink:href="#PalatinoLinotype-Bold-37"/>
    </g>
   </g>
   <g id="text_19">
    <g id="patch_14">
     <path d="M 328.953838 109.738535 
L 359.186807 109.738535 
L 359.186807 98.82041 
L 328.953838 98.82041 
z
" style="fill:none;opacity:0.5;"/>
    </g>
    <!-- 11.60% -->
    <g style="fill:#262626;" transform="translate(329.943838 106.35791)scale(0.09 -0.09)">
     <use xlink:href="#PalatinoLinotype-Bold-49"/>
     <use x="50" xlink:href="#PalatinoLinotype-Bold-49"/>
     <use x="100" xlink:href="#PalatinoLinotype-Bold-46"/>
     <use x="125" xlink:href="#PalatinoLinotype-Bold-54"/>
     <use x="175" xlink:href="#PalatinoLinotype-Bold-48"/>
     <use x="225" xlink:href="#PalatinoLinotype-Bold-37"/>
    </g>
   </g>
   <g id="text_20">
    <g id="patch_15">
     <path d="M 331.203838 71.788297 
L 356.936807 71.788297 
L 356.936807 60.870172 
L 331.203838 60.870172 
z
" style="fill:none;opacity:0.5;"/>
    </g>
    <!-- 8.50% -->
    <g style="fill:#262626;" transform="translate(332.193838 68.407672)scale(0.09 -0.09)">
     <use xlink:href="#PalatinoLinotype-Bold-56"/>
     <use x="50" xlink:href="#PalatinoLinotype-Bold-46"/>
     <use x="75" xlink:href="#PalatinoLinotype-Bold-53"/>
     <use x="125" xlink:href="#PalatinoLinotype-Bold-48"/>
     <use x="175" xlink:href="#PalatinoLinotype-Bold-37"/>
    </g>
   </g>
  </g>
  <g id="text_21">
   <!-- Savings per year as share  retailer_peak_offpeak  Case: best  bubbles: % -->
   <defs>
    <path d="M 3.859375 16.796875 
L 4.25 17.1875 
L 6.640625 17.1875 
L 7.03125 16.796875 
Q 7.28125 10.546875 7.6875 9.15625 
Q 8.109375 7.765625 10.328125 6.21875 
Q 12.546875 4.6875 16.234375 3.703125 
Q 19.921875 2.734375 23.6875 2.734375 
Q 28.859375 2.734375 32.984375 4.640625 
Q 37.109375 6.546875 39.40625 10.234375 
Q 41.703125 13.921875 41.703125 18.5 
Q 41.703125 21.734375 40.59375 24.125 
Q 39.5 26.515625 37.515625 27.953125 
Q 35.546875 29.390625 33 30.09375 
Q 30.46875 30.8125 25.4375 31.640625 
Q 20.5625 32.421875 17.796875 33.046875 
Q 15.046875 33.6875 12.3125 35 
Q 9.578125 36.328125 7.734375 38.34375 
Q 5.90625 40.375 4.8125 43.328125 
Q 3.71875 46.296875 3.71875 49.65625 
Q 3.71875 58.796875 10.0625 64.625 
Q 16.40625 70.453125 27.09375 70.453125 
Q 31.34375 70.453125 36.34375 69.40625 
Q 41.359375 68.359375 45.453125 66.3125 
L 45.796875 65.71875 
Q 44.734375 61.234375 44.484375 52.9375 
L 44.046875 52.546875 
L 41.5 52.546875 
L 41.109375 52.875 
Q 41.015625 58.734375 40.8125 60.25 
Q 40.625 61.765625 36.375 64.015625 
Q 32.125 66.265625 27.15625 66.265625 
Q 23 66.265625 19.375 64.59375 
Q 15.765625 62.9375 13.90625 59.375 
Q 12.0625 55.8125 12.0625 52.09375 
Q 12.0625 49.21875 13.1875 47 
Q 14.3125 44.78125 16.09375 43.484375 
Q 17.875 42.1875 20.234375 41.546875 
Q 22.609375 40.921875 28.90625 39.984375 
Q 37.546875 38.765625 41.46875 37.03125 
Q 45.40625 35.296875 47.765625 31.53125 
Q 50.140625 27.78125 50.140625 22.46875 
Q 50.140625 12.0625 41.671875 5.125 
Q 33.203125 -1.8125 21.140625 -1.8125 
Q 11.03125 -1.8125 3.421875 1.8125 
L 3.125 2.4375 
Q 3.609375 5.515625 3.859375 16.796875 
z
" id="PalatinoLinotype-Roman-83"/>
    <path d="M 53.859375 43.171875 
L 54.25 42.28125 
Q 52.25 39.203125 51.765625 38.28125 
L 42.671875 38.28125 
Q 44.046875 35.59375 44.046875 32.671875 
Q 44.046875 29.203125 42.453125 25.921875 
Q 40.875 22.65625 38.03125 20.359375 
Q 35.203125 18.0625 31.609375 16.6875 
Q 28.03125 15.328125 23.4375 15.328125 
L 21.1875 15.328125 
Q 18.3125 13.03125 17.484375 11.90625 
Q 16.65625 10.796875 16.65625 9.625 
Q 16.65625 7.46875 18.625 6.59375 
Q 20.609375 5.71875 26.8125 5.71875 
L 37.75 5.859375 
Q 42.921875 5.859375 45.671875 4.640625 
Q 48.4375 3.421875 50.140625 0.265625 
Q 51.859375 -2.875 51.859375 -6.390625 
Q 51.859375 -11.765625 48.359375 -17.109375 
Q 44.875 -22.46875 38.28125 -25.25 
Q 31.6875 -28.03125 24.21875 -28.03125 
Q 19.96875 -28.03125 16.234375 -27.09375 
Q 12.5 -26.171875 9.6875 -24.28125 
Q 6.890625 -22.40625 5.171875 -19.375 
Q 3.46875 -16.359375 3.46875 -13.09375 
Q 3.46875 -11.28125 4 -9.296875 
Q 4.546875 -7.328125 6.0625 -5.03125 
L 14.890625 -0.09375 
Q 10.640625 1.21875 9.546875 2.515625 
Q 8.453125 3.8125 8.453125 5.609375 
Q 8.453125 7.46875 9.671875 10.015625 
L 17.53125 15.671875 
Q 10.59375 17.484375 8.171875 21.09375 
Q 5.765625 24.703125 5.765625 29 
Q 5.765625 32.953125 7.46875 36.546875 
Q 9.1875 40.140625 12.625 42.28125 
Q 16.0625 44.4375 20.328125 45.671875 
Q 24.609375 46.921875 28.125 46.921875 
Q 34.234375 46.921875 39.75 42.96875 
Q 48.578125 42.96875 53.859375 43.171875 
z
M 14.15625 31.84375 
Q 14.15625 28.859375 15.328125 25.4375 
Q 16.5 22.015625 19.109375 20.25 
Q 21.734375 18.5 25 18.5 
Q 29.34375 18.5 32.484375 21.328125 
Q 35.640625 24.171875 35.640625 30.171875 
Q 35.640625 35.25 32.765625 39.296875 
Q 29.890625 43.359375 24.609375 43.359375 
Q 20.171875 43.359375 17.15625 40.453125 
Q 14.15625 37.546875 14.15625 31.84375 
z
M 28.46875 -0.921875 
Q 20.609375 -0.921875 19.40625 -1.109375 
Q 18.21875 -1.3125 16.015625 -2.78125 
Q 13.8125 -4.25 12.421875 -6.765625 
Q 11.03125 -9.28125 11.03125 -12.40625 
Q 11.03125 -17.921875 15.125 -21.390625 
Q 19.234375 -24.859375 26.078125 -24.859375 
Q 31.203125 -24.859375 35.546875 -22.703125 
Q 39.890625 -20.5625 41.96875 -16.9375 
Q 44.046875 -13.328125 44.046875 -10.015625 
Q 44.046875 -6.6875 42.3125 -4.3125 
Q 40.578125 -1.953125 37.8125 -1.4375 
Q 35.0625 -0.921875 28.46875 -0.921875 
z
" id="PalatinoLinotype-Roman-103"/>
    <path d="M 4.9375 14.359375 
L 7.03125 14.359375 
L 7.46875 13.921875 
Q 7.5625 9.8125 7.953125 6.890625 
Q 9.46875 4.59375 13.171875 3.140625 
Q 16.890625 1.703125 20.515625 1.703125 
Q 25.6875 1.703125 28.78125 4.484375 
Q 31.890625 7.28125 31.890625 11.140625 
Q 31.890625 13.234375 30.765625 14.765625 
Q 29.640625 16.3125 27.359375 17.3125 
Q 25.09375 18.3125 19.234375 19.671875 
Q 14.203125 20.84375 12.203125 21.5 
Q 10.203125 22.171875 8.34375 23.734375 
Q 6.5 25.296875 5.515625 27.5625 
Q 4.546875 29.828125 4.546875 32.5625 
Q 4.546875 39.109375 9.734375 43.03125 
Q 14.9375 46.96875 22.703125 46.96875 
Q 25.984375 46.96875 29.828125 46.0625 
Q 33.6875 45.171875 35.6875 44.34375 
L 36.140625 43.65625 
Q 35.75 41.703125 35.640625 33.40625 
L 35.203125 32.953125 
L 33.25 32.953125 
L 32.8125 33.40625 
Q 32.625 36.375 32.28125 37.5625 
Q 31.9375 38.765625 30.515625 40.15625 
Q 29.109375 41.546875 26.515625 42.5 
Q 23.921875 43.453125 21.046875 43.453125 
Q 18.0625 43.453125 16.03125 42.578125 
Q 14.015625 41.703125 12.765625 39.921875 
Q 11.53125 38.140625 11.53125 35.59375 
Q 11.53125 33.734375 12.28125 32.265625 
Q 13.03125 30.8125 14.59375 29.90625 
Q 16.15625 29 17.875 28.609375 
L 23.1875 27.25 
Q 30.03125 25.59375 32.984375 24.359375 
Q 35.9375 23.140625 37.546875 20.671875 
Q 39.15625 18.21875 39.15625 14.703125 
Q 39.15625 7.953125 33.59375 3.125 
Q 28.03125 -1.703125 19.28125 -1.703125 
Q 16.21875 -1.703125 11.640625 -1.015625 
Q 7.078125 -0.34375 3.859375 0.484375 
L 3.609375 1.125 
L 4.109375 4.390625 
Q 4.34375 5.90625 4.390625 7.4375 
Q 4.4375 8.984375 4.5 13.921875 
z
" id="PalatinoLinotype-Roman-115"/>
    <path id="PalatinoLinotype-Roman-32"/>
    <path d="M 2.203125 -26.515625 
Q 3.859375 -22.40625 4.6875 -19 
L 5.859375 -19 
Q 8.25 -21.578125 11.03125 -21.578125 
Q 14.5 -21.578125 17.0625 -18.140625 
Q 19.625 -14.703125 24.3125 -2.9375 
Q 22.46875 2.296875 20.5625 6.9375 
L 12.796875 26.171875 
Q 11.578125 29.15625 9.171875 34.6875 
Q 6.78125 40.234375 6.3125 40.796875 
Q 5.859375 41.359375 5.125 41.84375 
Q 4.390625 42.328125 1.171875 42.78125 
L 0.78125 43.171875 
L 0.78125 45.125 
L 1.21875 45.515625 
Q 6.84375 45.171875 12.75 45.171875 
Q 19.671875 45.171875 23.4375 45.515625 
L 23.828125 45.125 
L 23.828125 43.171875 
L 23.484375 42.78125 
Q 22.953125 42.71875 20.484375 42.546875 
Q 18.015625 42.390625 17.40625 41.765625 
Q 16.796875 41.15625 16.796875 40.375 
Q 16.796875 39.546875 18.3125 34.984375 
Q 19.828125 30.421875 21.234375 26.90625 
L 24.3125 19.28125 
Q 27.34375 11.765625 29 8.203125 
L 31.59375 13.921875 
Q 32.953125 17.046875 35.5 23.390625 
L 39.546875 33.734375 
Q 41.109375 37.75 41.328125 38.71875 
Q 41.546875 39.703125 41.546875 40.140625 
Q 41.546875 41.21875 40.765625 41.609375 
Q 39.984375 42 37.3125 42.28125 
L 35.25 42.578125 
L 34.90625 42.96875 
L 34.90625 45.125 
L 35.296875 45.515625 
Q 39.40625 45.171875 45.015625 45.171875 
Q 50.140625 45.171875 53.21875 45.515625 
L 53.609375 45.125 
L 53.609375 42.96875 
L 53.21875 42.578125 
Q 51.421875 42.53125 50.34375 42.09375 
Q 49.265625 41.65625 48.28125 40.53125 
Q 47.3125 39.40625 44.765625 34.203125 
Q 42.234375 29 39.703125 23.4375 
L 34.90625 12.9375 
L 23.640625 -13.421875 
Q 22.171875 -16.84375 20 -20.75 
Q 17.828125 -24.65625 14.671875 -26.390625 
Q 11.53125 -28.125 8.015625 -28.125 
Q 4.9375 -28.125 2.203125 -26.515625 
z
M 28.328125 49.609375 
z
M 39.796875 -2.9375 
z
" id="PalatinoLinotype-Roman-121"/>
    <path d="M 16.609375 72.3125 
L 17.53125 71.734375 
Q 17 66.109375 17 49.21875 
L 17 37.15625 
Q 21.09375 40.53125 24.609375 43.84375 
Q 25.640625 44.78125 26.5625 45.21875 
Q 27.484375 45.65625 29.5625 46.140625 
Q 31.640625 46.625 33.84375 46.625 
Q 37.546875 46.625 41.03125 45.109375 
Q 44.53125 43.609375 46.3125 41.53125 
Q 48.09375 39.453125 48.78125 36.625 
Q 49.46875 33.796875 49.46875 29.640625 
L 49.46875 21.046875 
Q 49.46875 20.21875 49.703125 8.890625 
Q 49.859375 4.25 50.75 3.359375 
Q 51.65625 2.484375 56.78125 2.484375 
L 57.171875 2.09375 
L 57.171875 0 
L 56.78125 -0.390625 
Q 50.59375 0 48.390625 0 
Q 47.265625 0 41.265625 -0.390625 
L 40.671875 0.140625 
Q 41.3125 6.5 41.3125 16.703125 
L 41.3125 23.09375 
Q 41.3125 28.859375 41.03125 31.390625 
Q 40.765625 33.9375 39.390625 36.015625 
Q 38.03125 38.09375 35.765625 39.234375 
Q 33.5 40.375 30.28125 40.375 
Q 26.953125 40.375 24.734375 39.46875 
Q 22.515625 38.578125 20.21875 36.421875 
Q 17.921875 34.28125 17.453125 32.828125 
Q 17 31.390625 17 27.296875 
L 17 18.609375 
Q 17 17.53125 17.1875 11.6875 
Q 17.390625 5.859375 17.609375 4.875 
Q 17.828125 3.90625 18.265625 3.46875 
Q 18.703125 3.03125 19.328125 2.90625 
Q 19.96875 2.78125 24.609375 2.484375 
L 25.046875 2.09375 
L 25.046875 0.046875 
L 24.65625 -0.390625 
Q 18.5625 0 12.890625 0 
Q 7.28125 0 1.171875 -0.390625 
L 0.734375 0.046875 
L 0.734375 2.09375 
L 1.171875 2.484375 
Q 5.90625 2.78125 6.515625 2.921875 
Q 7.125 3.078125 7.59375 3.53125 
Q 8.0625 4 8.234375 4.953125 
Q 8.40625 5.90625 8.625 11.25 
Q 8.84375 16.609375 8.84375 19.34375 
L 8.84375 44.625 
L 8.640625 54.984375 
Q 8.5 60.40625 8.328125 62.5 
Q 8.15625 64.59375 7.859375 64.984375 
Q 7.5625 65.375 6.828125 65.5625 
Q 6.109375 65.765625 0.921875 65.765625 
L 0.484375 66.21875 
L 0.484375 68.265625 
L 0.875 68.703125 
Q 10.203125 69.78125 16.609375 72.3125 
z
" id="PalatinoLinotype-Roman-104"/>
    <path d="M 12.9375 21.390625 
L 12.9375 27.15625 
L 87.0625 27.15625 
L 87.0625 21.390625 
z
" id="PalatinoLinotype-Roman-8212"/>
    <path d="M 17.78125 72.3125 
L 18.703125 71.734375 
Q 18.171875 66.109375 18.171875 49.21875 
L 18.171875 26.3125 
Q 19.828125 27.296875 24.703125 31.21875 
Q 29.59375 35.15625 35.03125 40.203125 
Q 40.484375 45.265625 40.625 45.703125 
Q 44.78125 45.5625 45.609375 45.5625 
Q 46.734375 45.5625 50.140625 45.703125 
L 50.59375 45.265625 
L 50.59375 43.359375 
L 50.203125 42.921875 
Q 47.75 42.78125 46.453125 42.28125 
Q 45.171875 41.796875 41.1875 39.0625 
Q 37.203125 36.328125 31.78125 31.890625 
L 27.046875 28.03125 
Q 29.640625 25 36.109375 18.53125 
Q 42.578125 12.0625 46.578125 8.5 
Q 50.59375 4.9375 51.8125 4.421875 
Q 53.03125 3.90625 54.390625 3.90625 
L 54.390625 1.8125 
Q 52.59375 1.46875 45.0625 -1.171875 
Q 39.984375 3.21875 38.625 4.640625 
L 35.015625 8.34375 
L 30.71875 12.703125 
Q 28.71875 14.703125 25.34375 17.78125 
L 18.171875 24.421875 
L 18.171875 18.609375 
Q 18.171875 17.53125 18.359375 11.6875 
Q 18.5625 5.859375 18.78125 4.875 
Q 19 3.90625 19.4375 3.46875 
Q 19.875 3.03125 20.5 2.90625 
Q 21.140625 2.78125 25.78125 2.484375 
L 26.21875 2.09375 
L 26.21875 0.046875 
L 25.828125 -0.390625 
Q 19.734375 0 14.0625 0 
Q 8.453125 0 2.34375 -0.390625 
L 1.90625 0.046875 
L 1.90625 2.09375 
L 2.34375 2.484375 
Q 7.078125 2.78125 7.6875 2.921875 
Q 8.296875 3.078125 8.765625 3.53125 
Q 9.234375 4 9.40625 4.953125 
Q 9.578125 5.90625 9.796875 11.25 
Q 10.015625 16.609375 10.015625 19.34375 
L 10.015625 44.625 
L 9.8125 54.984375 
Q 9.671875 60.40625 9.5 62.5 
Q 9.328125 64.59375 9.03125 64.984375 
Q 8.734375 65.375 8 65.5625 
Q 7.28125 65.765625 2.09375 65.765625 
L 1.65625 66.21875 
L 1.65625 68.265625 
L 2.046875 68.703125 
Q 11.375 69.78125 17.78125 72.3125 
z
" id="PalatinoLinotype-Roman-107"/>
    <path d="M 68.109375 8.25 
L 66.265625 3.71875 
Q 55.421875 -1.8125 43.109375 -1.8125 
Q 25.484375 -1.8125 14.46875 8.203125 
Q 3.46875 18.21875 3.46875 34.375 
Q 3.46875 45.515625 8.953125 53.828125 
Q 14.453125 62.15625 23.453125 66.28125 
Q 32.46875 70.40625 43.703125 70.40625 
Q 50.203125 70.40625 56.546875 69.03125 
Q 62.890625 67.671875 67.140625 65.765625 
L 67.484375 65.28125 
Q 66.359375 62.546875 65.375 51.765625 
L 65.046875 51.375 
L 62.75 51.375 
L 62.359375 51.765625 
L 61.859375 60.0625 
Q 58.296875 62.890625 53.234375 64.46875 
Q 48.1875 66.0625 42.71875 66.0625 
Q 34.46875 66.0625 27.921875 62.515625 
Q 21.390625 58.984375 17.765625 52.265625 
Q 14.15625 45.5625 14.15625 35.84375 
Q 14.15625 26.078125 18.40625 18.703125 
Q 22.65625 11.328125 30 7.375 
Q 37.359375 3.421875 47.171875 3.421875 
Q 51.515625 3.421875 55.515625 4.25 
Q 59.515625 5.078125 62.171875 6.296875 
Q 64.84375 7.515625 67.28125 9.28125 
z
" id="PalatinoLinotype-Roman-67"/>
    <path d="M 12.5 45.3125 
Q 14.890625 45.3125 16.59375 43.59375 
Q 18.3125 41.890625 18.3125 39.453125 
Q 18.3125 37.0625 16.59375 35.34375 
Q 14.890625 33.640625 12.5 33.640625 
Q 10.0625 33.640625 8.34375 35.34375 
Q 6.640625 37.0625 6.640625 39.453125 
Q 6.640625 42 8.375 43.65625 
Q 10.109375 45.3125 12.5 45.3125 
z
M 12.5 10.796875 
Q 14.84375 10.796875 16.578125 9.125 
Q 18.3125 7.46875 18.3125 4.9375 
Q 18.3125 2.546875 16.59375 0.828125 
Q 14.890625 -0.875 12.5 -0.875 
Q 10.0625 -0.875 8.34375 0.796875 
Q 6.640625 2.484375 6.640625 4.9375 
Q 6.640625 7.375 8.34375 9.078125 
Q 10.0625 10.796875 12.5 10.796875 
z
" id="PalatinoLinotype-Roman-58"/>
    <path d="M -0.640625 65.765625 
L -1.078125 66.21875 
L -1.078125 68.265625 
L -0.6875 68.703125 
Q 8.640625 69.78125 15.046875 72.3125 
L 15.96875 71.734375 
Q 15.4375 66.109375 15.4375 49.21875 
L 15.4375 36.765625 
Q 16.359375 37.984375 18.890625 40.5 
Q 21.4375 43.015625 23.015625 44.03125 
Q 24.609375 45.0625 27.359375 45.84375 
Q 30.125 46.625 33.15625 46.625 
Q 38.671875 46.625 42.84375 43.890625 
Q 47.015625 41.15625 49.046875 36.59375 
Q 51.078125 32.03125 51.078125 26.859375 
Q 51.078125 21.921875 49.390625 17.46875 
Q 47.703125 13.03125 45.40625 10.15625 
Q 44.046875 8.5 40.578125 5.953125 
Q 33.796875 1.03125 31.03125 -0.21875 
Q 28.265625 -1.46875 23.875 -1.46875 
Q 20.453125 -1.46875 17.671875 -0.515625 
Q 14.890625 0.4375 11.921875 2.484375 
L 7.953125 -1.21875 
L 6.34375 -0.59375 
Q 7.28125 8.296875 7.28125 19.625 
L 7.28125 45.515625 
L 7.078125 54.890625 
Q 6.9375 60.25 6.765625 62.421875 
Q 6.59375 64.59375 6.296875 64.984375 
Q 6 65.375 5.296875 65.5625 
Q 4.59375 65.765625 -0.640625 65.765625 
z
M 15.4375 30.90625 
L 15.4375 12.59375 
Q 15.4375 10.296875 15.65625 9.59375 
Q 15.875 8.890625 17.609375 7.4375 
Q 19.34375 6 22.078125 4.953125 
Q 24.8125 3.90625 27.734375 3.90625 
Q 34.671875 3.90625 38.59375 9.28125 
Q 42.53125 14.65625 42.53125 22.90625 
Q 42.53125 28.078125 40.890625 32.046875 
Q 39.265625 36.03125 35.984375 38.125 
Q 32.71875 40.234375 28.609375 40.234375 
Q 23.78125 40.234375 20.09375 37.375 
Q 16.40625 34.515625 15.4375 30.90625 
z
" id="PalatinoLinotype-Roman-98"/>
    <path d="M 16.890625 46.53125 
L 17.828125 45.90625 
Q 17.28125 39.5 17.28125 29.640625 
L 17.28125 18.265625 
Q 17.28125 12.015625 18.234375 9.5625 
Q 19.1875 7.125 21.53125 5.828125 
Q 23.875 4.546875 27.09375 4.546875 
Q 30.671875 4.546875 33.59375 5.9375 
Q 36.53125 7.328125 38.5 9.859375 
Q 40.484375 12.40625 40.765625 13.28125 
Q 41.0625 14.15625 41.15625 18.21875 
L 41.3125 23.6875 
L 41.3125 28.953125 
Q 41.3125 30.90625 41.109375 34.265625 
Q 40.921875 37.640625 40.796875 38.421875 
Q 40.671875 39.203125 40.03125 39.5625 
Q 39.40625 39.9375 37.5 39.9375 
L 33.40625 39.984375 
L 32.953125 40.375 
L 32.953125 42.484375 
L 33.34375 42.875 
Q 42.671875 44 49.078125 46.53125 
L 50 45.90625 
Q 49.46875 39.5 49.46875 29.640625 
L 49.46875 21.046875 
Q 49.46875 20.3125 49.703125 9.078125 
Q 49.8125 4.9375 50.21875 4.03125 
Q 50.640625 3.125 51.359375 2.75 
Q 52.09375 2.390625 55.71875 2.390625 
L 57.078125 2.390625 
L 57.515625 2 
L 57.515625 0.046875 
L 57.125 -0.390625 
Q 50.25 0 47.90625 0 
Q 44.921875 0 41.015625 -0.34375 
L 40.578125 0.046875 
Q 40.875 5.03125 41.015625 8.5 
Q 37.9375 6.109375 33.984375 2.09375 
Q 32.46875 0.59375 29.640625 -0.4375 
Q 26.8125 -1.46875 23.1875 -1.46875 
Q 17.71875 -1.46875 14.671875 0.265625 
Q 11.625 2 10.34375 5.046875 
Q 9.078125 8.109375 9.078125 15.578125 
L 9.125 19.4375 
L 9.125 28.953125 
Q 9.125 30.90625 8.921875 34.265625 
Q 8.734375 37.640625 8.609375 38.421875 
Q 8.5 39.203125 7.859375 39.5625 
Q 7.234375 39.9375 5.328125 39.9375 
L 1.21875 39.984375 
L 0.78125 40.375 
L 0.78125 42.484375 
L 1.171875 42.875 
Q 10.5 44 16.890625 46.53125 
z
M 28.5625 49.609375 
z
M 29.046875 -2.9375 
z
" id="PalatinoLinotype-Roman-117"/>
    <path d="M 63.625 71.578125 
L 25.09375 -3.171875 
L 24.515625 -3.46875 
L 21 -3.46875 
L 20.703125 -2.984375 
L 59.234375 71.78125 
L 59.71875 72.125 
L 63.328125 72.125 
z
M 4.4375 53.375 
Q 4.4375 60.0625 9.21875 65.015625 
Q 14.015625 69.96875 21.4375 69.96875 
Q 25.984375 69.96875 29.6875 68.0625 
Q 33.40625 66.15625 35.375 62.328125 
Q 37.359375 58.5 37.359375 54.15625 
Q 37.359375 49.953125 35.25 45.78125 
Q 33.15625 41.609375 29.078125 39.28125 
Q 25 36.96875 20.40625 36.96875 
Q 13.671875 36.96875 9.046875 41.625 
Q 4.4375 46.296875 4.4375 53.375 
z
M 12.15625 52.984375 
Q 12.15625 45.84375 14.515625 42.671875 
Q 16.890625 39.5 20.75 39.5 
Q 25.046875 39.5 27.390625 43.5 
Q 29.734375 47.515625 29.734375 54.34375 
Q 29.734375 60.5 27.6875 64.0625 
Q 25.640625 67.625 21.34375 67.625 
Q 17 67.625 14.578125 63.734375 
Q 12.15625 59.859375 12.15625 52.984375 
z
M 46.625 15.046875 
Q 46.625 21.734375 51.390625 26.6875 
Q 56.15625 31.640625 63.578125 31.640625 
Q 68.171875 31.640625 71.875 29.734375 
Q 75.59375 27.828125 77.546875 24 
Q 79.5 20.171875 79.5 15.828125 
Q 79.5 11.71875 77.46875 7.5625 
Q 75.4375 3.421875 71.375 1.015625 
Q 67.328125 -1.375 62.59375 -1.375 
Q 55.765625 -1.375 51.1875 3.3125 
Q 46.625 8.015625 46.625 15.046875 
z
M 54.34375 14.65625 
Q 54.34375 10.5 55.21875 7.515625 
Q 56.109375 4.546875 58.15625 2.859375 
Q 60.203125 1.171875 62.9375 1.171875 
Q 67.1875 1.171875 69.546875 5.09375 
Q 71.921875 9.03125 71.921875 16.015625 
Q 71.921875 22.015625 69.9375 25.65625 
Q 67.96875 29.296875 63.53125 29.296875 
Q 59.421875 29.296875 56.875 25.609375 
Q 54.34375 21.921875 54.34375 14.65625 
z
" id="PalatinoLinotype-Roman-37"/>
   </defs>
   <g style="fill:#262626;" transform="translate(23.494688 15.566325)scale(0.12 -0.12)">
    <use xlink:href="#PalatinoLinotype-Roman-83"/>
    <use x="52.490234" xlink:href="#PalatinoLinotype-Roman-97"/>
    <use x="102.490234" xlink:href="#PalatinoLinotype-Roman-118"/>
    <use x="158.984375" xlink:href="#PalatinoLinotype-Roman-105"/>
    <use x="188.085938" xlink:href="#PalatinoLinotype-Roman-110"/>
    <use x="246.289062" xlink:href="#PalatinoLinotype-Roman-103"/>
    <use x="301.904297" xlink:href="#PalatinoLinotype-Roman-115"/>
    <use x="344.287109" xlink:href="#PalatinoLinotype-Roman-32"/>
    <use x="369.287109" xlink:href="#PalatinoLinotype-Roman-112"/>
    <use x="429.394531" xlink:href="#PalatinoLinotype-Roman-101"/>
    <use x="477.294922" xlink:href="#PalatinoLinotype-Roman-114"/>
    <use x="516.796875" xlink:href="#PalatinoLinotype-Roman-32"/>
    <use x="541.796875" xlink:href="#PalatinoLinotype-Roman-121"/>
    <use x="597.396484" xlink:href="#PalatinoLinotype-Roman-101"/>
    <use x="645.296875" xlink:href="#PalatinoLinotype-Roman-97"/>
    <use x="695.296875" xlink:href="#PalatinoLinotype-Roman-114"/>
    <use x="734.798828" xlink:href="#PalatinoLinotype-Roman-32"/>
    <use x="759.798828" xlink:href="#PalatinoLinotype-Roman-97"/>
    <use x="809.798828" xlink:href="#PalatinoLinotype-Roman-115"/>
    <use x="852.181641" xlink:href="#PalatinoLinotype-Roman-32"/>
    <use x="877.181641" xlink:href="#PalatinoLinotype-Roman-115"/>
    <use x="919.564453" xlink:href="#PalatinoLinotype-Roman-104"/>
    <use x="977.767578" xlink:href="#PalatinoLinotype-Roman-97"/>
    <use x="1027.767578" xlink:href="#PalatinoLinotype-Roman-114"/>
    <use x="1067.269531" xlink:href="#PalatinoLinotype-Roman-101"/>
    <use x="1115.169922" xlink:href="#PalatinoLinotype-Roman-32"/>
    <use x="1140.169922" xlink:href="#PalatinoLinotype-Roman-8212"/>
    <use x="1240.169922" xlink:href="#PalatinoLinotype-Roman-32"/>
    <use x="1265.169922" xlink:href="#PalatinoLinotype-Roman-114"/>
    <use x="1304.671875" xlink:href="#PalatinoLinotype-Roman-101"/>
    <use x="1352.572266" xlink:href="#PalatinoLinotype-Roman-116"/>
    <use x="1385.189453" xlink:href="#PalatinoLinotype-Roman-97"/>
    <use x="1435.189453" xlink:href="#PalatinoLinotype-Roman-105"/>
    <use x="1464.291016" xlink:href="#PalatinoLinotype-Roman-108"/>
    <use x="1493.392578" xlink:href="#PalatinoLinotype-Roman-101"/>
    <use x="1541.292969" xlink:href="#PalatinoLinotype-Roman-114"/>
    <use x="1580.794922" xlink:href="#PalatinoLinotype-Roman-95"/>
    <use x="1630.794922" xlink:href="#PalatinoLinotype-Roman-112"/>
    <use x="1690.902344" xlink:href="#PalatinoLinotype-Roman-101"/>
    <use x="1738.802734" xlink:href="#PalatinoLinotype-Roman-97"/>
    <use x="1788.802734" xlink:href="#PalatinoLinotype-Roman-107"/>
    <use x="1844.417969" xlink:href="#PalatinoLinotype-Roman-95"/>
    <use x="1894.417969" xlink:href="#PalatinoLinotype-Roman-111"/>
    <use x="1949.007812" xlink:href="#PalatinoLinotype-Roman-102"/>
    <use x="1982.308594" xlink:href="#PalatinoLinotype-Roman-102"/>
    <use x="2015.609375" xlink:href="#PalatinoLinotype-Roman-112"/>
    <use x="2075.716797" xlink:href="#PalatinoLinotype-Roman-101"/>
    <use x="2123.617188" xlink:href="#PalatinoLinotype-Roman-97"/>
    <use x="2173.617188" xlink:href="#PalatinoLinotype-Roman-107"/>
    <use x="2229.232422" xlink:href="#PalatinoLinotype-Roman-32"/>
    <use x="2254.232422" xlink:href="#PalatinoLinotype-Roman-8212"/>
    <use x="2354.232422" xlink:href="#PalatinoLinotype-Roman-32"/>
    <use x="2379.232422" xlink:href="#PalatinoLinotype-Roman-67"/>
    <use x="2450.130859" xlink:href="#PalatinoLinotype-Roman-97"/>
    <use x="2500.130859" xlink:href="#PalatinoLinotype-Roman-115"/>
    <use x="2542.513672" xlink:href="#PalatinoLinotype-Roman-101"/>
    <use x="2590.414062" xlink:href="#PalatinoLinotype-Roman-58"/>
    <use x="2615.414062" xlink:href="#PalatinoLinotype-Roman-32"/>
    <use x="2640.414062" xlink:href="#PalatinoLinotype-Roman-98"/>
    <use x="2695.736328" xlink:href="#PalatinoLinotype-Roman-101"/>
    <use x="2743.636719" xlink:href="#PalatinoLinotype-Roman-115"/>
    <use x="2786.019531" xlink:href="#PalatinoLinotype-Roman-116"/>
    <use x="2818.636719" xlink:href="#PalatinoLinotype-Roman-32"/>
    <use x="2843.636719" xlink:href="#PalatinoLinotype-Roman-8212"/>
    <use x="2943.636719" xlink:href="#PalatinoLinotype-Roman-32"/>
    <use x="2968.636719" xlink:href="#PalatinoLinotype-Roman-98"/>
    <use x="3023.958984" xlink:href="#PalatinoLinotype-Roman-117"/>
    <use x="3084.261719" xlink:href="#PalatinoLinotype-Roman-98"/>
    <use x="3139.583984" xlink:href="#PalatinoLinotype-Roman-98"/>
    <use x="3194.90625" xlink:href="#PalatinoLinotype-Roman-108"/>
    <use x="3224.007812" xlink:href="#PalatinoLinotype-Roman-101"/>
    <use x="3271.908203" xlink:href="#PalatinoLinotype-Roman-115"/>
    <use x="3314.291016" xlink:href="#PalatinoLinotype-Roman-58"/>
    <use x="3339.291016" xlink:href="#PalatinoLinotype-Roman-32"/>
    <use x="3364.291016" xlink:href="#PalatinoLinotype-Roman-37"/>
   </g>
  </g>
 </g>
 <defs>
  <clipPath id="p1ec7dba4d0">
   <rect height="265.0032" width="263.540431" x="104.389784" y="41.2992"/>
  </clipPath>
 </defs>
</svg>
